<?xml version="1.0" encoding="utf-8"?>
<svg id="master-artboard" viewBox="0 0 1400 980" version="1.1" xmlns="http://www.w3.org/2000/svg" x="0px" y="0px" style="enable-background:new 0 0 1400 980;" width="1400px" height="980px">



<path d="M577,1999.8c3.1-1.5,6.2-3.2,9.2-5c22.8-13.7,42.1-34.7,55.8-60.7c15.9-30.2,22.6-65.1,19-98.1&#10;&#9;&#9;c-4.2-37.4-21.5-71.9-49.9-99.8c-4.7-4.6-12.3-4.5-17,0.2s-4.5,12.3,0.2,17c56.4,55.1,49.6,125.8,26.5,169.5&#10;&#9;&#9;c-11.7,22.2-27.5,39.5-45.4,50.6c0.3-0.4,0.6-0.8,0.9-1.2c14.7-21.7,23.1-50.7,23.7-81.6c0.7-39.7-11.3-76.9-33.8-105&#10;&#9;&#9;c-24.6-30.6-60.4-48.5-104.1-52.2v-126.7c0-6.6-5.4-12-12-12c-6.6,0-12,5.4-12,12v137.5c0,0.1,0,0.2,0,0.3c0,0.3,0,0.6,0,0.9v15&#10;&#9;&#9;c-28.6-0.7-53.9,3.5-75.2,12.6c-22.4,9.6-40.1,24.3-52.5,43.7c-25.1,39.3-25.3,95.7-0.5,140.3c2.2,3.9,4.5,7.6,6.9,11.1&#10;&#9;&#9;c-14.6-11-27.6-26.3-37.6-45.2c-23-43.7-29.9-114.4,26.5-169.5c4.7-4.6,4.8-12.2,0.2-17c-4.6-4.7-12.2-4.8-17-0.2&#10;&#9;&#9;c-28.5,27.8-45.8,62.3-49.9,99.8c-3.7,33,3,67.8,19,98.1c13.7,26,33,47,55.8,60.7c3,1.8,6.1,3.5,9.2,5&#10;&#9;&#9;c-26.3,11.9-47.7,30.7-60.1,54.3c-20.1,38.3-14.4,83.5,15.8,127.3c2.3,3.4,6.1,5.2,9.9,5.2c2.4,0,4.7-0.7,6.8-2.1&#10;&#9;&#9;c5.5-3.8,6.8-11.2,3-16.7c-25-36.1-30.1-72.5-14.3-102.5c11.1-21.2,31.6-37.6,56.9-47c-1.6,2.2-3.2,4.5-4.7,6.9&#10;&#9;&#9;c-10.5,17-16.5,37.9-17.3,60.6c-0.9,26.3,5.3,53.3,17.5,75.8c13.6,25.1,33.5,43.4,57.7,52.7c1.4,0.5,2.9,0.8,4.3,0.8&#10;&#9;&#9;c4.8,0,9.4-2.9,11.2-7.7c2.4-6.2-0.7-13.1-6.9-15.5c-43.1-16.6-61.2-66.2-59.8-105.3c1-29,11.6-52.3,29.2-66.2&#10;&#9;&#9;c-0.9,7.6-1.1,14-1.1,17.6c0,10.1,1.3,44.4,17.8,61c16.5,16.5,50.9,17.8,61,17.8c10.1,0,44.4-1.3,61-17.8&#10;&#9;&#9;c16.5-16.5,17.8-50.9,17.8-61c0-3.5-0.2-10-1.1-17.6c17.6,13.9,28.2,37.3,29.2,66.2c1.4,39.1-16.8,88.7-59.8,105.3&#10;&#9;&#9;c-6.2,2.4-9.3,9.3-6.9,15.5c1.8,4.8,6.4,7.7,11.2,7.7c1.4,0,2.9-0.3,4.3-0.8c24.2-9.3,44.2-27.5,57.7-52.7&#10;&#9;&#9;c12.2-22.6,18.4-49.5,17.5-75.8c-0.8-22.7-6.8-43.6-17.3-60.6c-1.5-2.4-3-4.7-4.7-6.9c25.3,9.3,45.8,25.8,56.9,47&#10;&#9;&#9;c15.7,30,10.6,66.4-14.3,102.5c-3.8,5.5-2.4,12.9,3,16.7c2.1,1.4,4.5,2.1,6.8,2.1c3.8,0,7.6-1.8,9.9-5.2&#10;&#9;&#9;c30.3-43.8,35.9-89,15.8-127.3C624.7,2030.5,603.3,2011.7,577,1999.8z M410.1,2071.3c-9.2,0-16.7-7.5-16.7-16.7&#10;&#9;&#9;c0-9.2,7.5-16.7,16.7-16.7c9.2,0,16.7,7.5,16.7,16.7C426.8,2063.8,419.3,2071.3,410.1,2071.3z M438,1812.7&#10;&#9;&#9;c-30.8,1.7-56.1,10-69.1,23c-14.6,14.6-23.3,44.9-23.3,81.1c0,21.8,3.2,41.5,8.9,56.9c-9-6.8-17.1-16.3-23.7-28.2&#10;&#9;&#9;c-20.3-36.5-20.4-84.1-0.2-115.7c19.8-31.1,56.8-46.6,107.4-45.3V1812.7z M489.9,2071.3c-9.2,0-16.7-7.5-16.7-16.7&#10;&#9;&#9;c0-9.2,7.5-16.7,16.7-16.7c9.2,0,16.7,7.5,16.7,16.7C506.6,2063.8,499.1,2071.3,489.9,2071.3z M546.5,1970.6&#10;&#9;&#9;c5.1-14.9,7.9-33.5,7.9-54c0-36.2-8.7-66.5-23.3-81.1c-12.9-12.9-38.3-21.3-69.1-23v-55.1c80.2,7.8,115.1,71,113.9,132.6&#10;&#9;&#9;C575.3,1920.8,565.1,1952.5,546.5,1970.6z" transform="matrix(1.4387927055358887, 0, 0, 1.4387927055358887, 18.382095662689267, -2250.7691026638995)"/></svg>