<?xml version="1.0" encoding="utf-8"?>
<svg id="master-artboard" viewBox="0 0 2400 2400" version="1.1" xmlns="http://www.w3.org/2000/svg" x="0px" y="0px" style="enable-background:new 0 0 2400 2400;" width="2400px" height="2400px">



<g opacity="0.15" transform="matrix(5.571154946292853, 0, 0, 5.571154946292853, -8609.030703988445, -5877.429611238716)">
			<path d="M1705.158,1444.713c0,0-148.479-11.153-131.053-131.053c3.222-22.161,27.885-13.245,25.793,5.576&#10;&#9;&#9;&#9;&#9;c-3.699,33.293,16.729,100.381,109.442,107.353L1705.158,1444.713z"/>
			<path d="M 1880.173965 1153.437012 A 86.432999 62.713001 0 0 1 1793.740967 1216.150013 A 86.432999 62.713001 0 0 1 1707.307968 1153.437012 A 86.432999 62.713001 0 0 1 1793.740967 1090.72401 A 86.432999 62.713001 0 0 1 1880.173965 1153.437012 Z"/>
			<g>
				<path d="M 1717.760009765625 1135.260986328125 L 1717.760009765625 1070.5489501953125 L 1754.8409423828125 1102.5419921875 Z"/>
				<path d="M 1869.7220458984375 1135.260986328125 L 1869.7220458984375 1070.5489501953125 L 1832.6400146484375 1102.5419921875 Z"/>
			</g>
			<path d="M1880.445,1369.382c0,72.883-38.818,98.157-86.703,98.157c-47.886,0-86.706-25.274-86.706-98.157&#10;&#9;&#9;&#9;&#9;s38.82-163.594,86.706-163.594C1841.627,1205.789,1880.445,1296.5,1880.445,1369.382z"/>
			<g>
				
					<path d="M 1738.91 1408.750977 A 28.785 73.460999 0 0 1 1710.125 1482.211975 A 28.785 73.460999 0 0 1 1681.34 1408.750977 A 28.785 73.460999 0 0 1 1710.125 1335.289978 A 28.785 73.460999 0 0 1 1738.91 1408.750977 Z" transform="matrix(0.9192 -0.3938 0.3938 0.9192 -416.5803 787.2762)"/>
				
					<path d="M 1906.139957 1408.750977 A 28.784 73.459999 0 0 1 1877.355957 1482.210976 A 28.784 73.459999 0 0 1 1848.571957 1408.750977 A 28.784 73.459999 0 0 1 1877.355957 1335.290977 A 28.784 73.459999 0 0 1 1906.139957 1408.750977 Z" transform="matrix(-0.9192 -0.3938 0.3938 -0.9192 3048.2383 3442.978)"/>
			</g>
			<path d="M 1687.529052734375 1483.052978515625 L 1793.741943359375 1393.376953125 L 1899.9520263671875 1483.052978515625 Z"/>
		</g><path d="M 1870.173965 1143.437012 A 86.432999 62.713001 0 0 1 1783.740967 1206.150013 A 86.432999 62.713001 0 0 1 1697.307968 1143.437012 A 86.432999 62.713001 0 0 1 1783.740967 1080.72401 A 86.432999 62.713001 0 0 1 1870.173965 1143.437012 Z" fill="#4A403A" transform="matrix(5.571154946292853, 0, 0, 5.571154946292853, -8609.030703988445, -5877.429611238716)"/><path d="M 1707.760009765625 1125.260986328125 L 1707.760009765625 1060.5489501953125 L 1744.8409423828125 1092.5419921875 Z" fill="#4A403A" transform="matrix(5.571154946292853, 0, 0, 5.571154946292853, -8609.030703988445, -5877.429611238716)"/><path d="M 1859.7220458984375 1125.260986328125 L 1859.7220458984375 1060.5489501953125 L 1822.6400146484375 1092.5419921875 Z" fill="#4A403A" transform="matrix(5.571154946292853, 0, 0, 5.571154946292853, -8609.030703988445, -5877.429611238716)"/><path fill="#FFFFFF" d="M1794.467,1140.893c0,0,24.539-33.446,58.166-8.361&#10;&#9;&#9;&#9;&#9;C1852.633,1132.532,1836.274,1173.614,1794.467,1140.893z" transform="matrix(5.571154946292853, 0, 0, 5.571154946292853, -8609.030703988445, -5877.429611238716)" style="stroke: rgb(255, 204, 115); fill: rgb(255, 204, 115);"/><path d="M 1827.911984 1138.373047 A 3.453 12.18 0 0 1 1824.458984 1150.553047 A 3.453 12.18 0 0 1 1821.005984 1138.373047 A 3.453 12.18 0 0 1 1824.458984 1126.193047 A 3.453 12.18 0 0 1 1827.911984 1138.373047 Z" fill="#4A403A" transform="matrix(5.571154946292853, 0, 0, 5.571154946292853, -8609.030703988445, -5877.429611238716)"/><path fill="#FFFFFF" d="M1773.016,1140.893c0,0-24.538-33.446-58.166-8.361&#10;&#9;&#9;&#9;&#9;C1714.85,1132.532,1731.208,1173.614,1773.016,1140.893z" transform="matrix(5.571154946292853, 0, 0, 5.571154946292853, -8609.030703988445, -5877.429611238716)" style="fill: rgb(255, 204, 115);"/><path d="M 1746.477048 1138.373047 A 3.453 12.18 0 0 1 1743.024048 1150.553047 A 3.453 12.18 0 0 1 1739.571048 1138.373047 A 3.453 12.18 0 0 1 1743.024048 1126.193047 A 3.453 12.18 0 0 1 1746.477048 1138.373047 Z" fill="#4A403A" transform="matrix(5.571154946292853, 0, 0, 5.571154946292853, -8609.030703988445, -5877.429611238716)"/><path d="M 1774.4840087890625 1175.7750244140625 L 1783.741943359375 1159.741943359375 L 1792.998046875 1175.7750244140625 Z" fill="#352B26" transform="matrix(5.571154946292853, 0, 0, 5.571154946292853, -8609.030703988445, -5877.429611238716)"/><path fill="#4A403A" d="M1870.445,1359.382c0,72.883-38.818,98.157-86.703,98.157c-47.886,0-86.706-25.274-86.706-98.157&#10;&#9;&#9;&#9;s38.82-163.594,86.706-163.594C1831.627,1195.789,1870.445,1286.5,1870.445,1359.382z" transform="matrix(5.571154946292853, 0, 0, 5.571154946292853, -8609.030703988445, -5877.429611238716)"/><path d="M 1728.91 1398.750977 A 28.785 73.460999 0 0 1 1700.125 1472.211975 A 28.785 73.460999 0 0 1 1671.34 1398.750977 A 28.785 73.460999 0 0 1 1700.125 1325.289978 A 28.785 73.460999 0 0 1 1728.91 1398.750977 Z" transform="matrix(5.1210054157721725, -2.193921208595658, 2.193921208595657, 5.1210054157721725, -10912.426601250007, -1517.8322363168534)" fill="#4A403A"/><path d="M 1896.139957 1398.750977 A 28.784 73.459999 0 0 1 1867.355957 1472.210976 A 28.784 73.459999 0 0 1 1838.571957 1398.750977 A 28.784 73.459999 0 0 1 1867.355957 1325.290977 A 28.784 73.459999 0 0 1 1896.139957 1398.750977 Z" transform="matrix(-5.1210054157721725, -2.193921208595658, 2.193921208595657, -5.1210054157721725, 8288.194326400317, 13175.073741322763)" fill="#4A403A"/><path d="M 1677.529052734375 1473.052978515625 L 1783.741943359375 1383.376953125 L 1889.9520263671875 1473.052978515625 Z" fill="#4A403A" transform="matrix(5.571154946292853, 0, 0, 5.571154946292853, -8609.030703988445, -5877.429611238716)"/><path fill="#352B26" d="M1695.158,1434.713c0,0-148.479-11.153-131.053-131.053c3.222-22.161,27.885-13.245,25.793,5.576&#10;&#9;&#9;&#9;c-3.699,33.293,16.729,100.381,109.442,107.353L1695.158,1434.713z" transform="matrix(7.159539862566001, 0, 0, 7.159539862566002, -11104.248450358697, -8014.894462184987)"/><path d="M 1155.3619384765625 435.7073669433594" style="fill: rgb(0, 0, 0); fill-opacity: 1; stroke: rgb(0, 0, 0); stroke-opacity: 1; stroke-width: 0; paint-order: fill;"/></svg>