<?xml version="1.0" encoding="utf-8"?>
<svg id="master-artboard" viewBox="0 0 1400 980" version="1.1" xmlns="http://www.w3.org/2000/svg" x="0px" y="0px" style="enable-background:new 0 0 1400 980;" width="1400px" height="980px">



<path d="M1413.8,2055.3c3.4-5.5,8.4-14,13-23.3c12.3-24.9,15.2-41.8,9-53.3c-2.5-4.7-8.8-12.5-23.4-12.5&#10;&#9;&#9;&#9;c-28.2,0-62.2,24.1-75.5,34.5c-2.3,1.8-5.7,4.5-9.7,7.9c-4-15.7-10.3-29.1-18.7-37.5c-15.1-15.1-46.6-24.2-84.2-24.2&#10;&#9;&#9;&#9;c-37.6,0-69.1,9-84.2,24.2c-8.5,8.5-14.7,21.8-18.7,37.5c-4-3.4-7.4-6.2-9.7-7.9c-13.3-10.4-47.3-34.5-75.5-34.5&#10;&#9;&#9;&#9;c-14.6,0-20.9,7.8-23.4,12.5c-6.1,11.5-3.2,28.4,9,53.3c4.6,9.3,9.6,17.8,13,23.3c-3.4,5.5-8.4,14-13,23.3&#10;&#9;&#9;&#9;c-12.3,24.9-15.2,41.8-9,53.3c2.5,4.7,8.8,12.5,23.4,12.5c28.2,0,62.2-24.1,75.5-34.5c2.3-1.8,5.7-4.5,9.7-7.9&#10;&#9;&#9;&#9;c4,15.7,10.3,29.1,18.7,37.5c15.1,15.1,46.6,24.2,84.2,24.2s69.1-9,84.2-24.2c8.5-8.5,14.7-21.8,18.7-37.5c4,3.4,7.4,6.2,9.7,7.9&#10;&#9;&#9;&#9;c13.3,10.4,47.3,34.5,75.5,34.5c14.6,0,20.9-7.8,23.4-12.5c6.1-11.5,3.2-28.4-9-53.3C1422.2,2069.3,1417.2,2060.8,1413.8,2055.3z&#10;&#9;&#9;&#9; M1116.7,2073.6c-5.7,5.7-12.9,12.2-21.9,19c-22.5,17.1-44.9,27.7-58.6,27.7c-1.2,0-1.9-0.1-2.3-0.2c-0.4-1.9-0.9-10,9.6-31.1&#10;&#9;&#9;&#9;c7.2-14.4,15.5-26.9,15.6-27c2.7-4,2.7-9.3,0-13.4c-0.1-0.1-8.5-12.6-15.6-27c-10.5-21.1-10-29.3-9.6-31.1&#10;&#9;&#9;&#9;c0.4-0.1,1.2-0.2,2.3-0.2c13.7,0,36.1,10.6,58.6,27.7c9,6.8,16.3,13.3,21.9,19C1115.6,2049,1115.6,2061.5,1116.7,2073.6z&#10;&#9;&#9;&#9; M1291.5,2122.5c-10.3,10.3-37.3,17.1-67.2,17.1s-57-6.9-67.2-17.1s-17.1-37.3-17.1-67.2c0-30,6.9-57,17.1-67.2&#10;&#9;&#9;&#9;c10.3-10.3,37.3-17.1,67.2-17.1c30,0,57,6.9,67.2,17.1c10.3,10.3,17.1,37.3,17.1,67.2S1301.8,2112.3,1291.5,2122.5z&#10;&#9;&#9;&#9; M1414.8,2120.2c-0.4,0.1-1.2,0.2-2.3,0.2c-13.7,0-36.1-10.6-58.6-27.7c-9-6.8-16.3-13.3-21.9-19c1.1-12.1,1.1-24.6,0-36.7&#10;&#9;&#9;&#9;c5.7-5.7,12.9-12.2,21.9-19c22.5-17.1,44.9-27.7,58.6-27.7c1.2,0,1.9,0.1,2.3,0.2c0.4,1.9,0.9,10-9.6,31.1&#10;&#9;&#9;&#9;c-7.2,14.4-15.5,26.9-15.6,27c-2.7,4-2.7,9.3,0,13.4c0.1,0.1,8.5,12.6,15.6,27C1415.7,2110.2,1415.1,2118.3,1414.8,2120.2z" transform="matrix(1.6978423472478184, 0, 0, 1.6978423472478184, -1145.762916417288, -2742.7317847270833)"/><path d="M969.2,1717.5c-38.9,0-70.5,31.6-70.5,70.5c0,25,20.4,45.4,45.4,45.4c25,0,45.4-20.4,45.4-45.4c0-6.6-5.4-12-12-12&#10;&#9;&#9;&#9;c-6.6,0-12,5.4-12,12c0,11.8-9.6,21.4-21.4,21.4c-11.8,0-21.4-9.6-21.4-21.4c0-25.6,20.8-46.5,46.5-46.5&#10;&#9;&#9;&#9;c25.6,0,46.5,20.8,46.5,46.5c0,39.6-32.2,71.7-71.7,71.7c-39.6,0-71.7-32.2-71.7-71.7s32.2-71.7,71.7-71.7c6.6,0,12-5.4,12-12&#10;&#9;&#9;&#9;s-5.4-12-12-12c-52.8,0-95.7,42.9-95.7,95.7s42.9,95.7,95.7,95.7c52.8,0,95.7-42.9,95.7-95.7&#10;&#9;&#9;&#9;C1039.7,1749.1,1008.1,1717.5,969.2,1717.5z M1054.5,1677.4c-19.6-19.6-61-31.4-110.6-31.4c-49.6,0-90.9,11.7-110.6,31.4&#10;&#9;&#9;&#9;c-19.6,19.6-31.4,61-31.4,110.6s11.7,90.9,31.4,110.6c17.2,17.2,51.1,28.3,92.6,30.8v136.4c0,9.9,8.1,18,18,18c9.9,0,18-8.1,18-18&#10;&#9;&#9;&#9;v-136.4c41.5-2.5,75.4-13.6,92.6-30.8c19.6-19.6,31.4-61,31.4-110.6C1085.9,1738.4,1074.2,1697.1,1054.5,1677.4z M1037.6,1881.6&#10;&#9;&#9;&#9;c-14.8,14.8-51.5,24.3-93.6,24.3c-42.1,0-78.8-9.5-93.6-24.3c-32.4-32.4-32.4-154.8,0-187.2c14.8-14.8,51.5-24.3,93.6-24.3&#10;&#9;&#9;&#9;c42.1,0,78.8,9.6,93.6,24.3C1069.9,1726.8,1069.9,1849.2,1037.6,1881.6z" transform="matrix(1.6978424787521362, 0, 0, 1.6978424787521365, -1150.851252020772, -2745.2758669672207)"/></svg>