<?xml version="1.0" encoding="utf-8"?>
<svg id="master-artboard" viewBox="0 0 2400 2400" version="1.1" xmlns="http://www.w3.org/2000/svg" x="0px" y="0px" style="enable-background:new 0 0 2400 2400;" width="2400px" height="2400px">



<path d="M 1155.3619384765625 435.7073669433594" style="fill: rgb(0, 0, 0); fill-opacity: 1; stroke: rgb(0, 0, 0); stroke-opacity: 1; stroke-width: 0; paint-order: fill;"/><path fill="#FCAF17" d="M790.271,767.862c0,21.916-31.443,32.259-70.228,32.259s-70.228-10.343-70.228-32.259&#10;&#9;&#9;&#9;&#9;s31.443-101.346,70.228-101.346S790.271,745.946,790.271,767.862z" transform="matrix(15.371199607849121, 0, 0, 15.371199607849123, -9872.509632996569, -10066.136113228826)"/><path fill="#F15822" d="M679.139,695.072c-9.651,13.616-17.471,30.001-22.601,44.265c18.673,12.631,65.831,35.457,126.576-1.195&#10;&#9;&#9;&#9;&#9;c-5.222-14.22-13.05-30.384-22.655-43.755C743.627,700.913,714.312,707.478,679.139,695.072z" transform="matrix(15.371199607849121, 0, 0, 15.371199607849123, -9859.020375184069, -10069.139042916322)"/><path fill="#FFFFFF" d="M673.481,703.691c5.492,4.67,12.595,7.502,20.369,7.502h50.53c8.354,0,15.928-3.276,21.563-8.587&#10;&#9;&#9;&#9;&#9;c-12.31-19.833-28.353-36.09-45.899-36.09C702.178,666.516,685.875,683.369,673.481,703.691z" transform="matrix(15.371201515197754, 0, 0, 15.371201515197756, -9852.051625184069, -10102.573613228824)"/><path fill="#352B26" d="M731.89,742.881c0,4.811-5.305,8.708-11.847,8.708c-6.543,0-11.847-3.897-11.847-8.708H731.89z" transform="matrix(15.37120532989502, 0, 0, 15.371205329895021, -9831.901234559069, -10126.907597603824)"/><path d="M 695.491997 726.609985 A 8.708 8.708 0 0 1 686.783997 735.317986 A 8.708 8.708 0 0 1 678.075996 726.609985 A 8.708 8.708 0 0 1 686.783997 717.901985 A 8.708 8.708 0 0 1 695.491997 726.609985 Z" fill="#352B26" transform="matrix(15.371199607849121, 0, 0, 15.371199607849123, -9882.767445496569, -10044.528691353824)"/><path d="M 762.008025 726.609985 A 8.707 8.707 0 0 1 753.301025 735.316985 A 8.707 8.707 0 0 1 744.594026 726.609985 A 8.707 8.707 0 0 1 753.301025 717.902986 A 8.707 8.707 0 0 1 762.008025 726.609985 Z" fill="#352B26" transform="matrix(15.371201515197754, 0, 0, 15.371201515197756, -9848.280140809067, -10039.876347603824)"/></svg>