<?xml version="1.0" encoding="utf-8"?>
<svg id="master-artboard" viewBox="0 0 2400 2400" version="1.1" xmlns="http://www.w3.org/2000/svg" x="0px" y="0px" style="enable-background:new 0 0 2400 2400;" width="2400px" height="2400px">



<path d="M 1155.3619384765625 435.7073669433594" style="fill: rgb(0, 0, 0); fill-opacity: 1; stroke: rgb(0, 0, 0); stroke-opacity: 1; stroke-width: 0; paint-order: fill;"/><g transform="matrix(6.026297569274902, 0, 0, 6.026297569274903, -2110.250732421875, -59.13228832777236)">
	<path class="st1" d="M421.6,237.4l3.8-2.3l2.2,0.9c8.2,3.3,24.9,14.9,50.7,35.7c2-9.9,6.7-18.9,14.2-27c5.2-47,21.8-54.7,25-55.8&#10;&#9;&#9;c0.6-0.2,1.6-0.5,2.9-0.5c8.8,0,16.7,10.9,23.5,32.3c2.5-0.2,4.8-0.3,6.9-0.3c1.3,0,2.7,0,4.2,0.1c6.5-20.3,13.5-30.1,21.3-30.1&#10;&#9;&#9;c1.6,0,2.8,0.4,3.7,0.9c5.1,1.1,21.5,7.9,26.4,50.7c9.1,8.9,14.7,19.1,16.9,30.3c23-18.2,37.9-28.5,45.6-31.6l2.3-0.9l2,1.4&#10;&#9;&#9;c1.6,1.1,3.2,2.2,5,3.4c4.9,3.3,10.5,7.1,16.9,12.2c7.1-17.4,10.9-36.5,10.9-56.4c0-83.2-67.4-150.6-150.6-150.6&#10;&#9;&#9;s-150.6,67.4-150.6,150.6c0,15.2,2.3,30,6.5,43.8C415,241.6,418.4,239.4,421.6,237.4z" style="fill-rule: evenodd; clip-rule: evenodd;"/>
	<g>
		<path class="st0" d="M513.2,87.6v34.6c0,0.5-0.2,0.7-0.7,0.7H508c-0.5,0-0.7-0.2-0.7-0.7v-14.7h-3.4v14.7c0,0.5-0.2,0.7-0.7,0.7&#10;&#9;&#9;&#9;h-4.6c-0.5,0-0.7-0.2-0.7-0.7V87.6c0-0.5,0.2-0.7,0.7-0.7h4.6c0.5,0,0.7,0.2,0.7,0.7v13.8h3.4V87.6c0-0.5,0.2-0.7,0.7-0.7h4.6&#10;&#9;&#9;&#9;C513,86.9,513.2,87.1,513.2,87.6z" style="fill: rgb(255, 255, 255);"/>
		<path class="st0" d="M537.9,122.2c0.1,0.5-0.1,0.7-0.6,0.7h-4.7c-0.4,0-0.7-0.2-0.8-0.7l-0.4-5.6h-3.2l-0.4,5.6&#10;&#9;&#9;&#9;c-0.1,0.5-0.3,0.7-0.8,0.7h-4.7c-0.5,0-0.7-0.2-0.6-0.7l3.9-34.6c0.1-0.5,0.3-0.7,0.8-0.7h6.8c0.5,0,0.8,0.2,0.8,0.7L537.9,122.2z&#10;&#9;&#9;&#9; M531,110.9l-1-13.9h-0.4l-1,13.9H531z" style="fill: rgb(255, 255, 255);"/>
		<path class="st0" d="M554.9,86.9c0.9,0,1.7,0.2,2.5,0.5c0.8,0.3,1.5,0.8,2.1,1.4c0.6,0.6,1,1.3,1.4,2.1c0.3,0.8,0.5,1.6,0.5,2.5&#10;&#9;&#9;&#9;v8.4c0,0.9-0.2,1.7-0.5,2.5c-0.3,0.8-0.8,1.5-1.4,2.1c-0.6,0.6-1.3,1-2.1,1.4c-0.8,0.3-1.6,0.5-2.5,0.5h-2.4v13.9&#10;&#9;&#9;&#9;c0,0.5-0.2,0.7-0.7,0.7h-4.6c-0.5,0-0.7-0.2-0.7-0.7V87.6c0-0.5,0.2-0.7,0.7-0.7H554.9z M555.4,93.6c0-0.3-0.1-0.6-0.4-0.9&#10;&#9;&#9;&#9;c-0.2-0.2-0.5-0.4-0.9-0.4h-1.6v10.3h1.6c0.3,0,0.6-0.1,0.9-0.4c0.2-0.2,0.4-0.5,0.4-0.9V93.6z" style="fill: rgb(255, 255, 255);"/>
		<path class="st0" d="M578.3,86.9c0.9,0,1.7,0.2,2.5,0.5c0.8,0.3,1.5,0.8,2.1,1.4s1,1.3,1.4,2.1c0.3,0.8,0.5,1.6,0.5,2.5v8.4&#10;&#9;&#9;&#9;c0,0.9-0.2,1.7-0.5,2.5c-0.3,0.8-0.8,1.5-1.4,2.1c-0.6,0.6-1.3,1-2.1,1.4c-0.8,0.3-1.6,0.5-2.5,0.5h-2.4v13.9&#10;&#9;&#9;&#9;c0,0.5-0.2,0.7-0.7,0.7h-4.6c-0.5,0-0.7-0.2-0.7-0.7V87.6c0-0.5,0.2-0.7,0.7-0.7H578.3z M578.8,93.6c0-0.3-0.1-0.6-0.4-0.9&#10;&#9;&#9;&#9;c-0.2-0.2-0.5-0.4-0.9-0.4h-1.6v10.3h1.6c0.3,0,0.6-0.1,0.9-0.4c0.2-0.2,0.4-0.5,0.4-0.9V93.6z" style="fill: rgb(255, 255, 255);"/>
		<path class="st0" d="M609.4,87.1c0.1,0.2,0.1,0.3,0.1,0.5l-5.9,21.3v13.3c0,0.5-0.2,0.7-0.7,0.7h-4.6c-0.5,0-0.7-0.2-0.7-0.7&#10;&#9;&#9;&#9;v-13.3l-5.9-21.3c-0.1-0.2-0.1-0.3,0.1-0.5s0.3-0.2,0.5-0.2h5.5c0.5,0,0.8,0.2,0.8,0.7l2.1,13h0.2l2.1-13c0.1-0.5,0.3-0.7,0.8-0.7&#10;&#9;&#9;&#9;h5.5C609.1,86.9,609.3,87,609.4,87.1z" style="fill: rgb(255, 255, 255);"/>
		<path class="st0" d="M462.9,135.7v34.6c0,0.5-0.2,0.7-0.7,0.7h-4.6c-0.5,0-0.7-0.2-0.7-0.7v-14.7h-3.4v14.7c0,0.5-0.2,0.7-0.7,0.7&#10;&#9;&#9;&#9;h-4.6c-0.5,0-0.7-0.2-0.7-0.7v-34.6c0-0.5,0.2-0.7,0.7-0.7h4.6c0.5,0,0.7,0.2,0.7,0.7v13.8h3.4v-13.8c0-0.5,0.2-0.7,0.7-0.7h4.6&#10;&#9;&#9;&#9;C462.6,135,462.9,135.2,462.9,135.7z" style="fill: rgb(255, 255, 255);"/>
		<path class="st0" d="M487.6,170.3c0.1,0.5-0.1,0.7-0.6,0.7h-4.7c-0.4,0-0.7-0.2-0.8-0.7l-0.4-5.6h-3.2l-0.4,5.6&#10;&#9;&#9;&#9;c-0.1,0.5-0.3,0.7-0.8,0.7H472c-0.5,0-0.7-0.2-0.6-0.7l3.9-34.6c0.1-0.5,0.3-0.7,0.8-0.7h6.8c0.5,0,0.8,0.2,0.8,0.7L487.6,170.3z&#10;&#9;&#9;&#9; M480.7,158.9l-1-13.9h-0.4l-1,13.9H480.7z" style="fill: rgb(255, 255, 255);"/>
		<path class="st0" d="M509.5,165.7v4.6c0,0.5-0.2,0.7-0.7,0.7h-6.9h-0.1h-0.1h-4.6c-0.5,0-0.7-0.2-0.7-0.7v-34.6&#10;&#9;&#9;&#9;c0-0.5,0.2-0.7,0.7-0.7h4.6c0.5,0,0.7,0.2,0.7,0.7V165h6.4C509.2,165,509.5,165.2,509.5,165.7z" style="fill: rgb(255, 255, 255);"/>
		<path class="st0" d="M531.6,165.7v4.6c0,0.5-0.2,0.7-0.7,0.7h-6.9h-0.1h-0.1h-4.6c-0.5,0-0.7-0.2-0.7-0.7v-34.6&#10;&#9;&#9;&#9;c0-0.5,0.2-0.7,0.7-0.7h4.6c0.5,0,0.7,0.2,0.7,0.7V165h6.4C531.3,165,531.6,165.2,531.6,165.7z" style="fill: rgb(255, 255, 255);"/>
		<path class="st0" d="M554,164.9c0,0.9-0.2,1.7-0.5,2.5c-0.3,0.8-0.8,1.5-1.4,2.1c-0.6,0.6-1.3,1-2.1,1.4s-1.6,0.5-2.5,0.5h-2&#10;&#9;&#9;&#9;c-0.9,0-1.7-0.2-2.5-0.5c-0.8-0.3-1.5-0.8-2.1-1.4c-0.6-0.6-1-1.3-1.4-2.1c-0.3-0.8-0.5-1.6-0.5-2.5v-23.8c0-0.9,0.2-1.7,0.5-2.5&#10;&#9;&#9;&#9;c0.3-0.8,0.8-1.5,1.4-2.1c0.6-0.6,1.3-1,2.1-1.4c0.8-0.3,1.6-0.5,2.5-0.5h2c0.9,0,1.7,0.2,2.5,0.5c0.8,0.3,1.5,0.8,2.1,1.4&#10;&#9;&#9;&#9;c0.6,0.6,1,1.3,1.4,2.1c0.3,0.8,0.5,1.6,0.5,2.5V164.9z M547.9,141.4c0-0.3-0.1-0.6-0.4-0.9c-0.2-0.2-0.5-0.4-0.9-0.4h-0.4&#10;&#9;&#9;&#9;c-0.3,0-0.6,0.1-0.9,0.4c-0.2,0.2-0.4,0.5-0.4,0.9v23.2c0,0.3,0.1,0.6,0.4,0.9c0.2,0.2,0.5,0.4,0.9,0.4h0.4c0.3,0,0.6-0.1,0.9-0.4&#10;&#9;&#9;&#9;c0.2-0.2,0.4-0.5,0.4-0.9V141.4z" style="fill: rgb(255, 255, 255);"/>
		<path class="st0" d="M589.6,135.7l-6.1,34.6c-0.1,0.5-0.3,0.7-0.8,0.7h-4.5c-0.5,0-0.8-0.2-0.8-0.7l-1.8-12.8h-0.1l-1.8,12.8&#10;&#9;&#9;&#9;c-0.1,0.5-0.3,0.7-0.8,0.7h-4.5c-0.5,0-0.8-0.2-0.8-0.7l-6.1-34.6c-0.1-0.5,0.1-0.7,0.6-0.7h5.6c0.4,0,0.7,0.2,0.8,0.7l2.3,21h0.2&#10;&#9;&#9;&#9;l1.7-21c0.1-0.5,0.3-0.7,0.8-0.7h4.2c0.4,0,0.7,0.2,0.8,0.7l1.7,21h0.2l2.3-21c0.1-0.5,0.3-0.7,0.8-0.7h5.6&#10;&#9;&#9;&#9;C589.4,135,589.7,135.2,589.6,135.7z" style="fill: rgb(255, 255, 255);"/>
		<path class="st0" d="M610.2,165.7v4.6c0,0.5-0.2,0.7-0.7,0.7h-11.2c-0.5,0-0.7-0.2-0.7-0.7v-34.6c0-0.5,0.2-0.7,0.7-0.7h11.2&#10;&#9;&#9;&#9;c0.5,0,0.7,0.2,0.7,0.7v4.6c0,0.5-0.2,0.7-0.7,0.7h-5.9v7.4h5.1c0.5,0,0.7,0.2,0.7,0.7v4.6c0,0.5-0.2,0.7-0.7,0.7h-5.1V165h5.9&#10;&#9;&#9;&#9;C610,165,610.2,165.2,610.2,165.7z" style="fill: rgb(255, 255, 255);"/>
		<path class="st0" d="M632.3,165.7v4.6c0,0.5-0.2,0.7-0.7,0.7h-11.2c-0.5,0-0.7-0.2-0.7-0.7v-34.6c0-0.5,0.2-0.7,0.7-0.7h11.2&#10;&#9;&#9;&#9;c0.5,0,0.7,0.2,0.7,0.7v4.6c0,0.5-0.2,0.7-0.7,0.7h-5.9v7.4h5.1c0.5,0,0.7,0.2,0.7,0.7v4.6c0,0.5-0.2,0.7-0.7,0.7h-5.1V165h5.9&#10;&#9;&#9;&#9;C632.1,165,632.3,165.2,632.3,165.7z" style="fill: rgb(255, 255, 255);"/>
		<path class="st0" d="M658,135.7v34.6c0,0.5-0.2,0.7-0.7,0.7H654c-0.2,0-0.4-0.1-0.6-0.2c-0.2-0.1-0.3-0.3-0.4-0.5l-5.5-17v17&#10;&#9;&#9;&#9;c0,0.5-0.2,0.7-0.7,0.7h-4.6c-0.5,0-0.7-0.2-0.7-0.7v-34.6c0-0.5,0.2-0.7,0.7-0.7h3.4c0.2,0,0.4,0.1,0.6,0.2&#10;&#9;&#9;&#9;c0.2,0.1,0.3,0.3,0.4,0.5l5.3,16.5v-16.5c0-0.5,0.2-0.7,0.7-0.7h4.6C657.8,135,658,135.2,658,135.7z" style="fill: rgb(255, 255, 255);"/>
	</g>
	<path d="M555.3,42.6c-87.1,0-157.9,70.8-157.9,157.9c0,15.6,2.3,31.1,6.8,45.9l2.9,9.6l2-1.4v-6.5l-0.9-2.9&#10;&#9;&#9;c-4.4-14.5-6.6-29.5-6.6-44.7c0-84.8,69-153.8,153.8-153.8s153.8,69,153.8,153.8c0,19.9-3.8,39.3-11.2,57.6l-1.6,3.9l-1-0.8v5.4&#10;&#9;&#9;l2.7,2.2l3.7-9.2c7.6-18.8,11.5-38.7,11.5-59.2C713.2,113.4,642.4,42.6,555.3,42.6z"/>
	<path d="M670.3,248.1c-7.9,3.1-24.8,15.2-50.9,36.1c-0.5-14.1-6.4-26.4-17.7-37c-5-47.1-23.6-48.5-23.6-48.5s-8.8-7.7-20,29.7&#10;&#9;&#9;c-2.7-0.2-5.2-0.3-7.5-0.3c-3,0-6.4,0.2-10.2,0.6c-11.1-37.6-21.5-32.4-21.5-32.4s-17.1,4.6-22.2,53.5c-9.5,9.8-14.5,21-15,33.7&#10;&#9;&#9;c-29-23.5-47.6-36.9-56-40.2c-15.9,9.9-40.2,23.7-69.7,76.3c12.7-5.5,24.1-8.2,34.3-8.2c4.8,0,8.7,0.5,11.5,1.5&#10;&#9;&#9;c12.3,6.3,18.1,15.7,17.2,28.4c8.9-8,17.9-12,27.1-12c3.7,0,7,0.7,9.9,2.1c3,1.9,5.7,4.3,8,7c5.5,6.8,8.8,15.1,9.6,24.6&#10;&#9;&#9;c8-12.9,17.5-19.4,28.4-19.4c2.1,0,4,0.3,5.6,0.9c1.4,2.5,2.8,5,4.3,7.3c3.8,5.7,8.1,10.3,13.1,13.8c7.3,4.9,15.6,7.3,24.9,7.3&#10;&#9;&#9;c6.1-0.4,11.6-1.5,16.6-3.2c11.6-4.5,19.3-12.3,23-23.5c1.3-0.2,2.7-0.3,4.3-0.3c12.7,0,22.2,7.2,28.4,21.7&#10;&#9;&#9;c1.4-14.3,7.3-24.8,17.7-31.7c2.9-1.4,6.3-2,10.2-2c8.9,0,17.9,4,26.8,12c-0.9-12.7,4.8-22.2,17.2-28.4c2.8-1,6.7-1.5,11.5-1.5&#10;&#9;&#9;c10.2,0,21.6,2.7,34.3,8.2C710.5,271.7,685.7,258.8,670.3,248.1z M534.2,274.8c-1.4,3.1-7.2,3.1-12.9-0.1&#10;&#9;&#9;c-5.7-3.2-9.1-8.3-7.7-11.4c1.4-3.1,7.2-3.1,12.9,0.1C532.2,266.6,535.7,271.7,534.2,274.8z M580,274.7c-5.7,3.2-11.5,3.2-12.9,0.1&#10;&#9;&#9;c-1.5-3.1,2-8.2,7.7-11.4c5.7-3.2,11.5-3.2,12.9-0.1C589.1,266.5,585.7,271.6,580,274.7z"/>
</g></svg>