<?xml version="1.0" encoding="utf-8"?>
<svg id="master-artboard" viewBox="0 0 1400 980" version="1.1" xmlns="http://www.w3.org/2000/svg" x="0px" y="0px" style="enable-background:new 0 0 1400 980;" width="1400px" height="980px">



<path d="M 1072.551025 1222.552979 A 51.5 51.5 0 0 1 1021.051025 1274.052979 A 51.5 51.5 0 0 1 969.551025 1222.552979 A 51.5 51.5 0 0 1 1021.051025 1171.052979 A 51.5 51.5 0 0 1 1072.551025 1222.552979 Z" fill="#42B673" transform="matrix(2.029341459274292, 0, 0, 2.029341459274292, -1487.6449442724265, -2140.1636377790014)"/><path d="M 1159.051025 1222.552979 A 51.5 51.5 0 0 1 1107.551025 1274.052979 A 51.5 51.5 0 0 1 1056.051025 1222.552979 A 51.5 51.5 0 0 1 1107.551025 1171.052979 A 51.5 51.5 0 0 1 1159.051025 1222.552979 Z" fill="#42B673" transform="matrix(2.029341459274292, 0, 0, 2.029341459274292, -1487.6449442724265, -2140.1636377790014)"/><path d="M 1017.051025 1119.552979 A 15.5 15.5 0 0 1 1001.551025 1135.052979 A 15.5 15.5 0 0 1 986.051025 1119.552979 A 15.5 15.5 0 0 1 1001.551025 1104.052979 A 15.5 15.5 0 0 1 1017.051025 1119.552979 Z" fill="#42B673" transform="matrix(2.029341459274292, 0, 0, 2.029341459274292, -1487.6449442724265, -2140.1636377790014)"/><path d="M 1163.885017 1173.385986 A 11.167 11.167 0 0 1 1152.718018 1184.552986 A 11.167 11.167 0 0 1 1141.551018 1173.385986 A 11.167 11.167 0 0 1 1152.718018 1162.218987 A 11.167 11.167 0 0 1 1163.885017 1173.385986 Z" fill="#42B673" transform="matrix(2.029341459274292, 0, 0, 2.029341459274292, -1487.6449442724265, -2140.1636377790014)"/><path d="M 1103.051033 1119.218994 A 11.167 11.167 0 0 1 1091.884033 1130.385994 A 11.167 11.167 0 0 1 1080.717033 1119.218994 A 11.167 11.167 0 0 1 1091.884033 1108.051994 A 11.167 11.167 0 0 1 1103.051033 1119.218994 Z" fill="#42B673" transform="matrix(2.029341459274292, 0, 0, 2.029341459274292, -1487.6449442724265, -2140.1636377790014)"/><path d="M 1113.801025 1073.719971 A 6.75 6.75 0 0 1 1107.051025 1080.469971 A 6.75 6.75 0 0 1 1100.301025 1073.719971 A 6.75 6.75 0 0 1 1107.051025 1066.969971 A 6.75 6.75 0 0 1 1113.801025 1073.719971 Z" fill="#42B673" transform="matrix(2.029341459274292, 0, 0, 2.029341459274292, -1487.6449442724265, -2140.1636377790014)"/><path d="M 1113.551025 1162.052979 A 51.5 51.5 0 0 1 1062.051025 1213.552979 A 51.5 51.5 0 0 1 1010.551025 1162.052979 A 51.5 51.5 0 0 1 1062.051025 1110.552979 A 51.5 51.5 0 0 1 1113.551025 1162.052979 Z" fill="#42B673" transform="matrix(2.029341459274292, 0, 0, 2.029341459274292, -1487.6449442724265, -2140.1636377790014)"/><path d="M1193.396,1240.316c0,4.931-3.997,8.93-8.932,8.93H965.019c-4.931,0-8.931-3.999-8.931-8.93l0,0&#10;&#9;&#9;&#9;&#9;c0-4.933,4-8.932,8.931-8.932h219.446C1189.4,1231.384,1193.396,1235.383,1193.396,1240.316L1193.396,1240.316z" transform="matrix(2.029341459274292, 0, 0, 2.029341459274292, -1487.6449442724265, -2140.1636377790014)"/><path d="M1163.712,1238.19H985.772c-29.598,25.195-48.396,62.704-48.396,104.62c0,75.865,61.502,137.366,137.366,137.366&#10;&#9;&#9;&#9;&#9;c75.866,0,137.367-61.501,137.367-137.366C1212.108,1300.894,1193.31,1263.385,1163.712,1238.19z" transform="matrix(2.029341459274292, 0, 0, 2.029341459274292, -1487.6449442724265, -2140.1636377790014)"/><path d="M1154.457,1438.497c0,0,31.045,3.404,28.494,24.668c-2.552,21.263-2.551,44.229,19.563,46.779&#10;&#9;&#9;&#9;&#9;&#9;c22.114,2.553,22.54-16.589,3.402-20.839c0,0,11.165-57.093-21.158-72.402&#10;&#9;&#9;&#9;&#9;&#9;C1184.758,1416.703,1151.905,1405.325,1154.457,1438.497z" transform="matrix(2.029341459274292, 0, 0, 2.029341459274292, -1487.6449442724265, -2140.1636377790014)"/><path d="M995.027,1438.497c0,0-31.045,3.404-28.493,24.668c2.551,21.263,2.55,44.229-19.564,46.779&#10;&#9;&#9;&#9;&#9;&#9;c-22.114,2.553-22.54-16.589-3.401-20.839c0,0-11.166-57.093,21.157-72.402C964.726,1416.703,997.578,1405.325,995.027,1438.497&#10;&#9;&#9;&#9;&#9;&#9;z" transform="matrix(2.029341459274292, 0, 0, 2.029341459274292, -1487.6449442724265, -2140.1636377790014)"/><path fill="#352B26" d="M1183.396,1230.316c0,4.931-3.997,8.93-8.932,8.93H955.019c-4.931,0-8.931-3.999-8.931-8.93l0,0&#10;&#9;&#9;&#9;c0-4.933,4-8.932,8.931-8.932h219.446C1179.4,1221.384,1183.396,1225.383,1183.396,1230.316L1183.396,1230.316z" transform="matrix(2.029341459274292, 0, 0, 2.029341459274292, -1487.6449442724265, -2140.1636377790014)"/><path fill="#352B26" d="M1153.712,1228.19H975.772c-29.598,25.195-48.396,62.704-48.396,104.62&#10;&#9;&#9;&#9;c0,75.865,61.502,137.366,137.366,137.366c75.866,0,137.367-61.501,137.367-137.366&#10;&#9;&#9;&#9;C1202.108,1290.894,1183.31,1253.385,1153.712,1228.19z" transform="matrix(2.029341459274292, 0, 0, 2.029341459274292, -1487.6449442724265, -2140.1636377790014)"/><path fill="#352B26" d="M1144.457,1428.497c0,0,31.045,3.404,28.494,24.668c-2.552,21.263-2.551,44.229,19.563,46.779&#10;&#9;&#9;&#9;&#9;c22.114,2.553,22.54-16.589,3.402-20.839c0,0,11.165-57.093-21.158-72.402&#10;&#9;&#9;&#9;&#9;C1174.758,1406.703,1141.905,1395.325,1144.457,1428.497z" transform="matrix(2.029341459274292, 0, 0, 2.029341459274292, -1487.6449442724265, -2140.1636377790014)"/><path fill="#352B26" d="M985.027,1428.497c0,0-31.045,3.404-28.493,24.668c2.551,21.263,2.55,44.229-19.564,46.779&#10;&#9;&#9;&#9;&#9;c-22.114,2.553-22.54-16.589-3.401-20.839c0,0-11.166-57.093,21.157-72.402C954.726,1406.703,987.578,1395.325,985.027,1428.497z&#10;&#9;&#9;&#9;&#9;" transform="matrix(2.029341459274292, 0, 0, 2.029341459274292, -1487.6449442724265, -2140.1636377790014)"/><path fill="#42B673" d="M1009.551,1305.553c0,6.352-5.149,11.5-11.5,11.5l0,0c-6.351,0-11.5-5.148-11.5-11.5v-85.5&#10;&#9;&#9;&#9;c0-6.352,5.149-11.5,11.5-11.5l0,0c6.351,0,11.5,5.148,11.5,11.5V1305.553z" transform="matrix(2.029341459274292, 0, 0, 2.029341459274292, -1487.6449442724265, -2140.1636377790014)"/><path fill="#42B673" d="M1045.551,1277.553c0,6.352-5.149,11.5-11.5,11.5l0,0c-6.351,0-11.5-5.148-11.5-11.5v-85.5&#10;&#9;&#9;&#9;c0-6.352,5.149-11.5,11.5-11.5l0,0c6.351,0,11.5,5.148,11.5,11.5V1277.553z" transform="matrix(2.029341459274292, 0, 0, 2.029341459274292, -1487.6449442724265, -2140.1636377790014)"/></svg>