<?xml version="1.0" encoding="utf-8"?>
<svg id="master-artboard" viewBox="0 0 1400 980" version="1.1" xmlns="http://www.w3.org/2000/svg" x="0px" y="0px" style="enable-background:new 0 0 1400 980;" width="1400px" height="980px">



<path d="M636.9,213.9c-2.6-4.6-27.4-11.2-32-8.6c-3.4,2-27.3,99.5-38.5,152.3h30.2C613.3,305,638.7,217.1,636.9,213.9z&#10;&#9;&#9; M442.8,264.7c7.3-7.3,7.3-33,0-40.3c-7.3-7.3-33-7.3-40.3,0c-7.3,7.3-7.3,33,0,40.3C409.8,272,435.4,272,442.8,264.7z&#10;&#9;&#9; M631.8,407.3c10.1-0.3,18.1-8.5,18.1-18.6c0-10.3-8.3-18.6-18.6-18.6H268.6c-10.3,0-18.6,8.3-18.6,18.6c0,10.1,8.1,18.3,18.1,18.6&#10;&#9;&#9;c-5.1,20.1-13.3,57.9-16.1,101.4c-2.5,37.6-0.4,71.7,6.2,101.3c8.4,37.9,24.2,68.7,47,91.5c10.3,10.3,30.2,18.2,59,23.5&#10;&#9;&#9;c24.3,4.5,54.8,6.9,85.8,6.9c31,0,61.5-2.5,85.8-6.9c28.9-5.3,48.7-13.2,59-23.5c22.8-22.8,38.6-53.5,47-91.5&#10;&#9;&#9;c6.6-29.6,8.6-63.7,6.2-101.3C645.1,465.2,636.9,427.4,631.8,407.3z M577.9,684.6c-3.1,3.1-13.8,10.9-46.4,16.9&#10;&#9;&#9;c-23,4.2-51.9,6.5-81.5,6.5c-29.6,0-58.5-2.3-81.5-6.5c-32.6-6-43.3-13.8-46.4-16.9c-76.1-76.1-39.4-238.3-29.2-277.1H607&#10;&#9;&#9;C617.3,446.3,654,608.4,577.9,684.6z M389.9,335.2c9.4-9.4,9.4-42.3,0-51.7c-9.4-9.4-42.3-9.4-51.7,0c-9.4,9.4-9.4,42.3,0,51.7&#10;&#9;&#9;C347.6,344.6,380.5,344.6,389.9,335.2z" transform="matrix(1.5260276794433594, 0, 0, 1.5260276794433594, -33.29631903152506, -237.23794817613754)"/></svg>