<?xml version="1.0" encoding="utf-8"?>
<svg id="master-artboard" viewBox="0 0 2400 2400" version="1.1" xmlns="http://www.w3.org/2000/svg" x="0px" y="0px" style="enable-background:new 0 0 2400 2400;" width="2400px" height="2400px">



<path d="M 1155.3619384765625 435.7073669433594" style="fill: rgb(0, 0, 0); fill-opacity: 1; stroke: rgb(0, 0, 0); stroke-opacity: 1; stroke-width: 0; paint-order: fill;"/><g transform="matrix(6.333369255065918, 0, 0, 6.333369255065918, -722.3424667534159, -2133.979129496308)">
	<path fill="#444242" d="M286.3,399.8c5.2,10.8,7.9,19,7.9,24.6l-0.8,4.8c3.2,5.1,4.8,12.5,4.8,22.1c0,23-6.8,46.2-20.5,69.7&#10;&#9;&#9;c-9.5,12.1-16.9,18.2-22.3,18.2v0.3c28.3,3.9,48.3,5.9,59.9,5.9c1.2-1.1,5.6-3.7,13.1-7.9c1.5-1.7,2.3-3.2,2.3-4.4&#10;&#9;&#9;c-1.9-7.1-2.8-11-2.8-11.8c0-0.4,0.3-1.5,0.8-3.1h0.8l-0.8,3.1c0,0.5,1.3,3.8,3.9,9.8c0.3,0.4,0.5,1.1,0.5,2v1.3l-0.5,2&#10;&#9;&#9;c8.2-4.4,12.3-9,12.3-13.9c0-0.5-0.9-3.8-2.8-9.8V511c0-2.5,1.2-4.6,3.6-6.2h0.3c-1.9,2.2-2.8,3.9-2.8,5.1l0.5,0.8l-0.5,0.8&#10;&#9;&#9;c3,6,4.4,10.2,4.4,12.6c0,0.4-0.3,1.9-0.8,4.3c10.3-7.5,16.2-12.5,17.9-14.9c0.4-1,0.7-2.1,0.7-3.3v-0.3c-0.8-0.7-1.3-2.3-1.5-5.1&#10;&#9;&#9;c-2.2-3.1-3.3-6.1-3.3-9.2v-1.1c0-5.1,4.1-9.3,12.3-12.6c-6.3,4.4-9.5,8.3-9.5,11.8v1.6c0,1,0.5,2.7,1.6,5.1h0.3&#10;&#9;&#9;c3.9-3.9,8.7-6.3,14.3-7.1c3.6-1.1,6.7-2.3,9.2-3.6c-0.2,1.2-6.2,4.2-17.9,9c-2.4,2.3-3.6,3.9-3.6,4.8c1.9,2.7,2.8,5.6,2.8,8.7&#10;&#9;&#9;c12.9-6.2,20.2-9.3,21.8-9.3c-0.3,0.3-4.7,2.8-13.1,7.4v0.5c15.8-0.9,26.2-2.2,31-3.9c0-0.3,1.3-0.9,3.9-1.6&#10;&#9;&#9;c-2.4,3.4-12.5,6.3-30.2,8.7c-0.9,0-3.6,0.1-8.2,0.3c-0.5-0.2-0.9-0.3-1.1-0.3c-3.7,1.9-8,5.7-12.8,11.5h0.5&#10;&#9;&#9;c14.3-1.5,25.6-3.5,33.9-5.9c-6.2,3.5-20,7.6-41.2,12.3c-3.4,1.4-5.4,2.7-5.9,3.9c0.4,0,2-0.2,4.8-0.5c4.4,0.5,7.8,0.8,10.3,0.8&#10;&#9;&#9;h2.8l2.8-0.3v0.8c-5.2,0.7-12.2,1.1-21,1.5c-2.5,0.8-7,3.3-13.4,7.5l-2.8,0.8v0.3h5.1c18.9,0,37.3-1.8,55.1-5.4&#10;&#9;&#9;c4.7-2.7,12.7-8.8,24.1-18.2h0.3c-10.2,11-15.7,16.6-16.6,16.6v0.3h0.3l22.1-3.1c3.4-5,12.6-7.7,27.7-7.9c0.4-0.2,2-0.5,4.8-0.8&#10;&#9;&#9;v0.8c-16,2.8-25.3,5.4-28,7.5v0.3h11.2c4.4,0,10.4,0.7,18.2,2v0.8c-3.5-0.5-6.9-0.8-10.3-0.8h-5.9c-11,0-29.4,3.6-55.1,10.7v0.5&#10;&#9;&#9;c2.4,0,8.7,4.2,19,12.6l2,1.1c6.3-1,9.5-2.8,9.5-5.6c3-4.7,4.5-7.1,4.8-7.1v0.8c-2,4-3.3,6.6-3.9,7.5h0.3&#10;&#9;&#9;c5.8-4.4,10.7-6.9,14.6-7.5c-4.6,2.8-10.2,6.9-16.9,12.3c-2,0.8-3.2,1.1-3.6,1.1v0.3c3.2,0.8,6.1,1.1,8.7,1.1h5.6&#10;&#9;&#9;c4.3-3.3,10.9-6.2,19.8-8.7c0-0.4,1.8-1.3,5.4-2.6c-1.8,2.1-8.3,5.6-19.7,10.7v0.3h0.3c11.6-1.5,18.9-2.3,21.8-2.3l3.9,0.3&#10;&#9;&#9;c0-0.4,3.8-2.4,11.5-5.9c0-0.4,1.9-1.3,5.6-2.5c2.2-1.9,4-3.9,5.6-6.2v0.8c-0.8,1.8-2,3.6-3.6,5.4c4-0.8,9.5-1.4,16.2-2v0.8&#10;&#9;&#9;c-15.6,2.8-23.4,5-23.4,6.4c-4.4,1.6-7,3-7.9,3.9c1.7,0,4.9,0.7,9.5,2c6.2-0.8,11.4-2,15.4-3.6v0.8c-5,2.4-9.1,3.6-12.3,3.6v0.3&#10;&#9;&#9;l9.2,2.5v0.7h-0.5c-9.1-1.7-14.5-2.6-16.2-2.6h-0.3v0.3c9.4,5.2,18.1,7.9,26.1,7.9h0.5v0.8l-2,0.3c-13.1,0-23.7-3.3-31.6-9.8H456&#10;&#9;&#9;c-3.6,0-8.6,0.8-15.1,2.5v0.3c1.2,0,4.6,0.7,10.3,2v0.8c-3.9-0.5-9.5-1.1-16.6-1.6c-6,1.6-11.2,2.5-15.4,2.5H416&#10;&#9;&#9;c-3.3,0-6.9-0.7-11-2v0.3c1.2,3.3,4.5,7.5,9.8,12.6h-0.3c-4.2-2.2-9.2-7.4-15.1-15.7c-1.3-0.8-3.2-2.1-5.6-3.9v1.5&#10;&#9;&#9;c-0.8,7.2-1.1,11.2-1.1,12v1.1c0,4.2,5,8.9,15.1,14.3H407c-12.1-4-18.2-9.8-18.2-17.4c0.2-3.7,0.3-6.9,0.3-9.5c0-8-5.8-12-17.4-12&#10;&#9;&#9;c-4.3,0.3-8.1,0.8-11.5,1.3c2.2,1.9,6.1,6.6,11.8,14.1c2.6,2.4,5.6,3.6,8.9,3.6h0.7v0.8h-3.4c-4.3,0-10.1-4.6-17.5-13.8&#10;&#9;&#9;c-2.5-2-4.6-3.3-6.2-4.1c-2.3,0.3-4.2,0.5-5.6,0.5c-1,0-2-0.4-3.1-1.1c-10.5,1.3-22.1,2-34.9,2h-24.1c-0.5,0-1.1-0.2-1.6-0.5h-0.3&#10;&#9;&#9;v0.5c12.4,6,22.2,9,29.7,9h1.6l17.7-2c8.7,0,15.2,5.5,19.5,16.6c2.7,4.5,7.4,6.7,14.1,6.7h6.4c3.8,0,7.5,0.4,11.1,1.3v0.8l-5.2-0.8&#10;&#9;&#9;l-15.7,1.5c-4.7,0-9.1-1.6-13.1-4.8c-5.4-9.2-10.2-13.8-14.6-13.8c-5.8,0.7-8.7,1.3-8.7,2c2.8,3.5,4.3,8.1,4.3,13.8l-1.5,10.3&#10;&#9;&#9;c0,3.3,3.9,6.5,11.8,9.5c3.2,1.1,5,1.6,5.6,1.6v0.8c-14-2.2-21-6.6-21-13.1v-2.8l0.3-0.8h-0.3l0.8-2.3l-0.5-2l0.5-0.8&#10;&#9;&#9;c0-4.2-1.6-8.6-4.8-13.4c-3.8,1-7.5,1.5-11.2,1.5c-4.5,0-9.2-0.7-14.3-2c1.3,7.2,3.4,10.8,6.4,10.8c0,0.4,0.8,0.7,2.3,0.7v0.8&#10;&#9;&#9;c-5.5,0-9.4-4.3-11.8-13c-6.7-2.3-17.6-6.9-32.8-13.9c-12.7-4.2-26.3-6.2-40.8-6.2h-0.3v0.3c4.2,0,12.2,4.6,24.1,13.8&#10;&#9;&#9;c3.5,1.6,6,2.5,7.5,2.5c1.4-0.3,2.5-0.5,3.1-0.5c0,0.7-1.3,1.1-3.9,1.3c-4.2,0-11-2.9-20.7-8.7c-3.1-2.3-12.3-4.4-27.7-6.4&#10;&#9;&#9;c-3.6-1.2-5.6-2-5.9-2.3l-2,0.3c-4.4,0-12.4,0.7-24.1,2v0.3c9.4,2.6,19.4,13.3,30,32.1c0.9,1.9,1.7,2.8,2.5,2.8l-0.5,0.8&#10;&#9;&#9;c6.4,9.4,14.8,14.1,25.1,14.1h3.1c3-7.7,6.8-14.6,11.5-20.8l1.1-0.8h0.3v0.8c-1.4,0-4.5,5.9-9.3,17.7c-0.2,0-0.9,0.9-2.1,2.8h0.5&#10;&#9;&#9;c11.6-1.4,17.4-2.7,17.4-3.9c7.4-5.2,13.2-8.4,17.4-9.5c-7.7,5.6-12,8.6-13,9.2v0.3h0.3c3.6-0.8,6.9-1.1,9.8-1.1h8&#10;&#9;&#9;c12.7,0,20.8,3,24.4,9l3.3,5.2v0.3c-5.5-7.1-10.7-10.7-15.6-10.7h-8.2c-8.5,0-22,3.3-40.3,9.8c-5.2,1.1-9.3,1.6-12.3,1.6H223&#10;&#9;&#9;c-6-0.5-9.3-0.8-10-0.8c1.7,6.1,6,9.2,12.6,9.2c17.1,1,25.6,2.1,25.7,3.4c1.1,0.4,1.9,1.1,2.5,2v0.5c-2.3-1.9-5.4-2.8-9.2-2.8&#10;&#9;&#9;c-6.1,0.2-9.3,0.3-9.5,0.3v0.5c0.8,0,3.3,1.6,7.5,4.8h-0.8l-9.8-4.8l-5.6,0.3c-8.6,0-14.5-3.2-17.7-9.5c-1.4-5.8-3-8.7-4.8-8.7&#10;&#9;&#9;c-7-4.8-13-11.5-17.9-20.2h-0.8v1.6c-2.8,9.3-4.3,15.1-4.3,17.4v0.8c0,2,0.9,4.3,2.8,7.1v0.3c-3.2-2.8-4.8-6.4-4.8-10.7l3.1-18.2&#10;&#9;&#9;v-0.8c0-5.9-6.3-12.8-19-20.8c-4.7-2.5-10.9-4.6-18.5-6.4v-0.3c-9.1,1.8-17.8,3.7-26.2,5.9l-0.3-0.8v-17.9c3.1-1.9,11-4.5,23.8-7.9&#10;&#9;&#9;c19.2-4.5,38.1-6.7,56.6-6.7c16.2,0.5,29.5,1.5,40,2.8h0.3V537c-11.9-6-22.1-19.8-30.5-41.5c-6-16.2-9-31.1-9-44.8&#10;&#9;&#9;c0-8.4,1.4-15.6,4.3-21.6l-0.3-4.1v-1.1c0-5,2.6-12.4,7.9-22.1l0.8-0.3c0.2,1.3,3.1,5.2,8.7,11.8l3.6-0.3c1.5,0,7.3,2.4,17.4,7.1&#10;&#9;&#9;c1.7,0.8,3.9,1.1,6.4,1.1c3.4,0,10.6-2.3,21.6-7.1c0.4-0.3,1.1-0.5,2-0.5h3.6l2,0.5c3.4-4.2,6.2-8.9,8.4-14.3H286.3z M204.8,465.9&#10;&#9;&#9;c0,10.1,7.2,29.5,21.6,58.2h0.5l11.8-53.8c0-4.3-3.6-8-10.7-11.1c-3.6-1.1-6.9-1.6-9.8-1.6c-9,0-13.4,2.1-13.4,6.4V465.9z&#10;&#9;&#9; M211,460.3c3.5,0.5,5.2,1.6,5.2,3.3c0,1-0.9,5.6-2.8,13.8h-0.8c-3.5-7.1-5.2-12-5.2-14.6v-1.1C207.4,460.9,208.6,460.5,211,460.3z&#10;&#9;&#9; M210.7,512.6h0.8v0.8h-0.8V512.6z M215.8,478.2c3,0,4.8,1.2,5.6,3.6c-1.9,8-2.8,12.5-2.8,13.4h-0.3c-2.2-2.4-4.2-7.1-6.1-13.9&#10;&#9;&#9;v-1.5C212.2,479,213.4,478.5,215.8,478.2z M223,424.7h-2c-1.2,0-2.6-0.7-4.1-2v0.8c0.9,2.4,2.6,3.6,5.2,3.6c3.2,0,4.8-1.2,4.8-3.6&#10;&#9;&#9;v-1.1C225.3,423.9,224,424.7,223,424.7z M216.9,439.8c0,4.7,3.1,7.4,9.2,8.2c4.5,0,7.3-2.9,8.4-8.7c-1.1-5.8-3.9-8.7-8.4-8.7h-0.8&#10;&#9;&#9;C220.3,430.6,217.5,433.7,216.9,439.8z M218.9,463.6h3.3c2.8,0.5,4.3,1.7,4.3,3.4c-1.9,7.9-2.8,12.4-2.8,13.4h-0.3&#10;&#9;&#9;c-3.6-5.5-5.6-10.7-5.9-15.7L218.9,463.6z M221.4,498.3h1.6c3.2,0,4.8,1.2,4.8,3.6c0,0.7-0.9,5.1-2.8,13.4h-0.8&#10;&#9;&#9;c-3.5-7.3-5.2-12.4-5.2-15.1v-0.8C219.2,498.7,220.1,498.3,221.4,498.3z M226.1,434.2c2.8,0.9,4.3,2.4,4.3,4.4v1.5&#10;&#9;&#9;c-0.4,2.6-1.8,3.9-3.9,3.9H225c-2.5,0-4-1.8-4.4-5.4C221.8,435.7,223.6,434.2,226.1,434.2z M225.6,481.3c2.6,0,4.5,1.2,5.6,3.6&#10;&#9;&#9;c-1.9,7.7-2.8,12.1-2.8,13.4h-1.1c-3.4-7.3-5.1-12.4-5.1-15.1v-0.3C222.2,482.2,223.3,481.6,225.6,481.3z M226.5,436.2l-0.3,2&#10;&#9;&#9;c0,0.4,0.5,0.8,1.6,1.1c1-0.3,1.5-0.7,1.5-1.1l-0.3-2H226.5z M230.9,466.2h0.8c2.5,0,4.2,1.1,5.1,3.3c-2,9.2-3.2,13.8-3.6,13.8&#10;&#9;&#9;c-3.6-6.9-5.4-12-5.4-15.4v-0.3C227.9,466.6,228.9,466.2,230.9,466.2z M249.4,448c-2.3,4.6-3.4,7.1-3.4,7.5&#10;&#9;&#9;c1.7,1.1,3.1,1.6,3.9,1.6c1.9-1.1,3-1.6,3.4-1.6C251.3,450.6,250,448.1,249.4,448z M249.4,458.3c-0.7-0.5-1.6-0.8-2.8-0.8&#10;&#9;&#9;c2.2,4.2,3.6,6.3,4.1,6.4l2.3-7.1C251.2,457.8,250,458.3,249.4,458.3z M258.1,469.8l13.1,53.5h0.8c13.2-28.6,19.8-47.7,19.8-57.1&#10;&#9;&#9;v-3.1c0-4.2-3.6-6.2-10.8-6.2h-4.3c-8.6,0-14.7,3.6-18.2,10.7L258.1,469.8z M259.4,439c1.2,5.6,3.9,8.4,8.2,8.4h1.3&#10;&#9;&#9;c5.2-1.1,7.9-3.8,7.9-8v-1.5c0-4.4-2.9-7.1-8.7-8C263.2,429.8,260.3,432.9,259.4,439z M265.6,465.5c2,0,3.2,0.7,3.6,2&#10;&#9;&#9;c-1.1,5.9-3,10.9-5.6,14.9h-0.3c-2.2-8.6-3.3-13.2-3.3-13.8C260.9,466.6,262.8,465.5,265.6,465.5z M267.6,433.9h1.3&#10;&#9;&#9;c1.4,0,2.6,0.8,3.4,2.3v0.3l-1.1-0.7h-0.8c-0.7,0-1,0.5-1.1,1.5c0.4,1.1,0.8,1.6,1.1,1.6h0.8c0.8,0,1.1-0.5,1.1-1.6h0.8v0.8&#10;&#9;&#9;c-0.3,3.7-2,5.6-5.1,5.6c-2.7,0-4.3-1.7-4.8-5.1v-0.5C263.9,435.3,265.3,433.9,267.6,433.9z M266.1,421.9v2&#10;&#9;&#9;c1.2,1.9,2.6,2.8,4.3,2.8h0.8c2.1,0,3.6-0.8,4.4-2.3v-2c-1.4,1.3-2.6,2-3.6,2h-2c-2.4-0.4-3.6-1.3-3.6-2.5H266.1z M271.5,480.5&#10;&#9;&#9;c2.4,0,3.6,0.8,3.6,2.5c0,3.2-1.9,8-5.6,14.6h-0.3c-2.1-8.6-3.1-13.2-3.1-13.8C266.1,482.2,267.9,481.1,271.5,480.5z M276,462.3&#10;&#9;&#9;c2.1,0.3,3.1,0.9,3.1,1.6v0.3c0,3-1.6,8-4.8,15.1H274c-0.4,0-1.8-4.5-3.9-13.4C271.1,463.5,273,462.3,276,462.3z M274,497.5h3.6&#10;&#9;&#9;c0.3,0,0.7,0.4,1.1,1.1v2c-0.7,3.6-2.2,8.3-4.8,13.9h-0.8c-2.1-8.1-3.1-12.7-3.1-13.9C270.1,499,271.4,498,274,497.5z M280.7,477.3&#10;&#9;&#9;h2.8c0.3,0,0.7,0.4,1.1,1.1v1.3c0,2.5-1.6,7.4-4.8,14.6h-0.8c-2.1-8.1-3.1-12.7-3.1-13.9C276,478.4,277.6,477.3,280.7,477.3z&#10;&#9;&#9; M285.5,459.1h0.3c2,0,3.2,0.7,3.6,2c-1,5-2.7,10.1-5.1,15.1h-0.8l-3.1-13.4v-0.8C281.5,460.1,283.2,459.1,285.5,459.1z M298.9,437&#10;&#9;&#9;h0.8v0.3h-0.8V437z M435.9,510.6h0.8v0.3h-0.8V510.6z"/>
</g><path d="M 2491.3388671875 1271.223388671875 L 2377.145751953125 1385.4166259765625 L 2377.145751953125 1385.4166259765625" style="fill: rgb(255, 255, 255); fill-opacity: 1; stroke: rgb(0, 0, 0); stroke-opacity: 1; stroke-width: 0; paint-order: fill;" transform="matrix(0.9999999999999999, 0, 0, 1, -1117.98427316294, -122.93805149891989)"/></svg>