<?xml version="1.0" encoding="utf-8"?>
<svg id="master-artboard" viewBox="0 0 1400 980" version="1.1" xmlns="http://www.w3.org/2000/svg" x="0px" y="0px" style="enable-background:new 0 0 1400 980;" width="1400px" height="980px">



<path d="M1332.5,653.5c-0.1-34.5-2-80.2-5.4-128.8c-3.3-47.8-7.7-93.5-12.3-128.8c-8.3-63.2-14.2-69.1-17.7-72.6&#10;&#9;&#9;c-5.5-5.5-18.4-13.4-67.4-18.8c-0.6-0.1-1.3-0.1-1.9-0.2c-0.2-21.3-2.7-78-23.1-98.4c-19.3-19.3-69.4-20.8-84.2-20.8&#10;&#9;&#9;s-64.9,1.5-84.2,20.8c-20.4,20.4-22.9,77.1-23.1,98.4c-0.6,0.1-1.3,0.1-1.9,0.2c-49,5.5-61.9,13.4-67.4,18.8&#10;&#9;&#9;c-3.5,3.5-9.4,9.4-17.7,72.6c-4.6,35.2-9,81-12.3,128.8c-3.4,48.6-5.3,94.4-5.4,128.8c-0.1,18.9,0.4,34.3,1.4,45.6&#10;&#9;&#9;c1.6,18.4,4.5,24.7,8.4,28.6c6,6,19.9,13.5,75.6,18.8c34.7,3.3,79.6,5.2,126.6,5.2c47,0,92-1.8,126.6-5.2&#10;&#9;&#9;c55.6-5.4,69.6-12.9,75.6-18.8c3.8-3.8,6.7-10.2,8.4-28.6C1332.1,687.8,1332.6,672.4,1332.5,653.5z M1053.2,222.8&#10;&#9;&#9;c6.9-6.9,32.2-13.8,67.2-13.8c35.1,0,60.4,6.9,67.3,13.8c7.7,7.7,15.5,37.2,16.1,79.3c-25.1-1.8-53.8-2.8-83.3-2.8&#10;&#9;&#9;c-29.5,0-58.2,1-83.3,2.8C1037.8,260,1045.6,230.5,1053.2,222.8z M1305,711.2c-3.1,1.7-16,7.3-61.6,11.6&#10;&#9;&#9;c-33.7,3.2-77.3,4.9-122.8,4.9c-45.5,0-89.1-1.7-122.8-4.9c-45.6-4.3-58.6-9.9-61.6-11.6c-1.1-3.4-3.9-16.9-3.5-63.3&#10;&#9;&#9;c0.3-33.5,2.2-77.2,5.4-122.9c3.1-45.1,7.3-88.6,11.6-122.4c6.1-48,10.6-60.1,11.8-62.6c2.2-1.5,12.8-7.2,53-11.6&#10;&#9;&#9;c29.2-3.2,66.9-5,106.2-5c39.3,0,77,1.8,106.2,5c40.3,4.5,50.9,10.1,53.1,11.6c1.2,2.5,5.6,14.6,11.8,62.6&#10;&#9;&#9;c4.3,33.9,8.4,77.3,11.6,122.4c3.2,45.8,5.1,89.4,5.4,122.9C1308.9,694.2,1306,707.7,1305,711.2z" transform="matrix(1.3996326923370361, 0, 0, 1.3996326923370361, -899.5846518068945, -168.00092810611844)"/><path d="M1230.5,458c0-60.7-49.2-110-110-110s-110,49.2-110,110c0,19.4,5,37.6,13.9,53.4c-2.6,5-4,10.6-4,16.6&#10;&#9;&#9;c0,20.1,16.3,36.4,36.4,36.4c0.6,0,1.2-0.1,1.9-0.1c-0.3,1.2-0.4,2.4-0.4,3.7c0,9.6,7.8,17.4,17.5,17.4c5.7,0,10.8-2.8,14-7.1&#10;&#9;&#9;c2.7,6.1,8.8,10.4,15.9,10.4c6.4,0,11.9-3.5,15-8.6c3,5.1,8.6,8.6,15,8.6c7.1,0,13.2-4.3,15.9-10.4c3.2,4.3,8.2,7.1,14,7.1&#10;&#9;&#9;c9.6,0,17.5-7.8,17.5-17.4c0-1.3-0.2-2.5-0.4-3.7c0.6,0,1.2,0.1,1.9,0.1c20.1,0,36.4-16.3,36.4-36.4c0-6-1.5-11.6-4-16.6&#10;&#9;&#9;C1225.4,495.6,1230.5,477.4,1230.5,458z M1064.3,506.3c-15.3,0-27.7-12.4-27.7-27.7c0-15.3,12.4-27.7,27.7-27.7&#10;&#9;&#9;c15.3,0,27.7,12.4,27.7,27.7C1092,493.9,1079.6,506.3,1064.3,506.3z M1120.5,533.6c-4,12.8-19.7,14.8-19.7,0.7&#10;&#9;&#9;c0-17.6,19.7-25.5,19.7-25.5s19.7,7.9,19.7,25.5C1140.2,548.4,1124.5,546.4,1120.5,533.6z M1176.7,506.3&#10;&#9;&#9;c-15.3,0-27.7-12.4-27.7-27.7c0-15.3,12.4-27.7,27.7-27.7c15.3,0,27.7,12.4,27.7,27.7C1204.4,493.9,1192,506.3,1176.7,506.3z" transform="matrix(1.3996326923370361, 0, 0, 1.3996326923370361, -899.5846518068945, -168.00092810611844)"/></svg>