<?xml version="1.0" encoding="utf-8"?>
<svg id="master-artboard" viewBox="0 0 1400 980" version="1.1" xmlns="http://www.w3.org/2000/svg" x="0px" y="0px" style="enable-background:new 0 0 1400 980;" width="1400px" height="980px">



<path d="M 1840.800048828125 466.6000061035156 L 1868.300048828125 514.2999877929688 L 1813.300048828125 514.2999877929688 Z" transform="matrix(1.8372642993927002, 0, 0, 1.8372642993927004, -2691.5598237113954, -376.901828910676)"/><path d="M1971.8,390.8l-55,95.3h110L1971.8,390.8z M1709.8,390.8l-55,95.3h110L1709.8,390.8z M1957.5,574l-45.4,6.9v-16.6&#10;&#9;&#9;&#9;c-14.4,2.2-30.6,3.9-48.6,4.7v23.2H1818V569c-18-0.8-34.2-2.5-48.6-4.7v16.6l-45.5-6.9v-19.8c-13.7-4.1-24.3-8.4-31.9-11.9&#10;&#9;&#9;&#9;c6.7,25,34.6,77.5,78.9,95v-18.2h45.5v29.2c7.7,0.9,15.8,1.4,24.3,1.4c8.5,0,16.6-0.5,24.3-1.4v-29.2h45.5v18.2&#10;&#9;&#9;&#9;c44.2-18.2,77-71.2,79.1-95c0,0-15.7,7-32.1,11.9V574z" transform="matrix(1.8372642993927002, 0, 0, 1.8372642993927004, -2691.5598237113954, -376.901828910676)"/><path d="M2067.1,352.9c-10.8-10.8-33.8-11.9-43.2-11.9c-6.5,0-19.5,0.6-30.5,4.5c-0.5-0.6-1-1.1-1.6-1.6&#10;&#9;&#9;&#9;&#9;c-11.8-11.8-38.9-13-50-13c-7.8,0-23.6,0.6-36.3,5.1c-1.2-1.5-2.5-2.9-3.8-4.2c-2.3-2.3-5.1-4.4-8.2-6.3&#10;&#9;&#9;&#9;&#9;c-1.4-10.4-3.6-21.2-5.3-29.1c-2.7-12.5-5.8-24.9-8.8-34.9c-5.2-17.2-8.1-21.1-10.4-23.4c-2-2-6.6-6.6-28.1-6.6&#10;&#9;&#9;&#9;&#9;c-21.5,0-26.1,4.7-28.1,6.6c-2.3,2.3-5.2,6.2-10.4,23.4c-3,9.9-6.1,22.3-8.8,34.9c-1.7,7.8-3.9,18.7-5.3,29.1&#10;&#9;&#9;&#9;&#9;c-3.1,1.9-5.9,4-8.2,6.3c-1.3,1.3-2.6,2.7-3.8,4.2c-12.8-4.5-28.5-5.1-36.4-5.1c-11.1,0-38.3,1.3-50,13c-0.5,0.5-1,1.1-1.6,1.6&#10;&#9;&#9;&#9;&#9;c-11-3.9-24-4.5-30.5-4.5c-9.4,0-32.4,1.2-43.2,11.9c-26.5,26.5-35.9,98.2-35.9,156.5c0,58.3,9.4,130,35.9,156.5&#10;&#9;&#9;&#9;&#9;c10.8,10.8,33.8,11.9,43.2,11.9c0,0,0,0,0,0c6.5,0,19.5-0.6,30.5-4.5c0.5,0.6,1,1.1,1.6,1.6c11.8,11.8,38.9,13,50,13h0&#10;&#9;&#9;&#9;&#9;c7.8,0,23.6-0.6,36.3-5.1c1.2,1.5,2.5,2.9,3.8,4.2c11.5,11.5,34.2,18.3,60.8,18.3c0,0,0,0,0,0c26.6,0,49.3-6.9,60.8-18.3&#10;&#9;&#9;&#9;&#9;c1.3-1.3,2.6-2.7,3.8-4.2c12.8,4.5,28.5,5.1,36.3,5.1c11.1,0,38.3-1.3,50-13c0.5-0.5,1-1.1,1.6-1.6c11,3.9,24,4.5,30.5,4.5&#10;&#9;&#9;&#9;&#9;c9.4,0,32.4-1.2,43.2-11.9c26.5-26.5,35.9-98.2,35.9-156.5C2103,451.1,2093.6,379.3,2067.1,352.9z M1817.4,299.3&#10;&#9;&#9;&#9;&#9;c4.7-21.1,9.5-37.1,12.1-43.2c2.3-0.4,6.1-0.8,11.3-0.8c5.2,0,9.1,0.4,11.3,0.8c2.6,6.1,7.4,22,12.1,43.2&#10;&#9;&#9;&#9;&#9;c1.3,6.1,2.5,11.6,3.4,16.6c-8.2-1.7-17.2-2.5-26.8-2.5s-18.6,0.9-26.8,2.5C1814.9,310.9,1816,305.4,1817.4,299.3z M2050.1,648.8&#10;&#9;&#9;&#9;&#9;c-1.8,1.7-11.4,4.9-26.2,4.9c-6.9,0-12.6-0.7-16.9-1.6c16.9-35.9,23.3-93.9,23.3-142.8c0-2.7,0-5.5-0.1-8.3h-24&#10;&#9;&#9;&#9;&#9;c0,2.7,0.1,5.5,0.1,8.3c0,70.1-12.6,129.8-31.4,148.6c-2.1,2.1-14,6-33.1,6c-9.8,0-17.7-1-23.3-2.3c2.1-4.4,4-9.2,5.7-14.1&#10;&#9;&#9;&#9;&#9;c-2.6,1.3-5.3,2.6-8,3.7l-20.7,8.5c0,0-7,6.5-10.8,10.4c-6.8,6.8-24.4,11.3-43.9,11.3s-37.1-4.5-43.9-11.3&#10;&#9;&#9;&#9;&#9;c-3.9-3.9-11-10.7-11-10.7l-20.5-8.1c-2.7-1.1-5.3-2.3-7.9-3.5c1.8,4.9,3.6,9.6,5.7,13.9c-5.6,1.3-13.5,2.3-23.3,2.3h0&#10;&#9;&#9;&#9;&#9;c-19.1,0-30.9-3.9-33.1-6c-18.8-18.8-31.4-78.5-31.4-148.6c0-2.8,0-5.5,0.1-8.3h-24c0,2.8-0.1,5.6-0.1,8.3&#10;&#9;&#9;&#9;&#9;c0,48.9,6.4,106.9,23.3,142.8c-4.4,0.9-10.1,1.6-16.9,1.6c-14.9,0-24.4-3.2-26.2-4.9c-17.3-17.3-28.9-73.3-28.9-139.5&#10;&#9;&#9;&#9;&#9;c0-66.2,11.6-122.2,28.9-139.5c1.8-1.7,11.4-4.9,26.2-4.9c6.9,0,12.6,0.7,16.9,1.6c-11.2,23.8-17.8,57.3-20.9,91.4l34.8-60.3&#10;&#9;&#9;&#9;&#9;c5-17,11.1-29.8,18.2-36.8c2.1-2.1,14-6,33.1-6c9.8,0,17.7,1,23.3,2.3c-8.3,17.8-14.2,40.4-18.2,64.6l19.7,34.2&#10;&#9;&#9;&#9;&#9;c4.9-51.2,16.6-91.6,32.2-107.2c6.8-6.8,24.4-11.3,43.9-11.3c19.5,0,37.1,4.5,43.9,11.3c15.6,15.6,27.4,56,32.2,107.2l19.7-34.2&#10;&#9;&#9;&#9;&#9;c-4-24.3-9.9-46.9-18.2-64.6c5.7-1.3,13.5-2.3,23.3-2.3c19.1,0,30.9,3.9,33.1,6c7,7,13.2,19.9,18.2,36.8l34.8,60.3&#10;&#9;&#9;&#9;&#9;c-3.2-34.1-9.7-67.6-20.9-91.4c4.4-0.9,10.1-1.6,16.9-1.6c14.9,0,24.4,3.2,26.2,4.9c17.3,17.3,28.9,73.3,28.9,139.5&#10;&#9;&#9;&#9;&#9;C2079,575.5,2067.4,631.6,2050.1,648.8z" transform="matrix(1.8372642993927002, 0, 0, 1.8372642993927004, -2691.5598237113954, -376.901828910676)"/></svg>