<?xml version="1.0" encoding="utf-8"?>
<svg id="master-artboard" viewBox="0 0 2400 2400" version="1.1" xmlns="http://www.w3.org/2000/svg" x="0px" y="0px" style="enable-background:new 0 0 2400 2400;" width="2400px" height="2400px">



<path d="M 1155.3619384765625 435.7073669433594" style="fill: rgb(0, 0, 0); fill-opacity: 1; stroke: rgb(0, 0, 0); stroke-opacity: 1; stroke-width: 0; paint-order: fill;"/><g transform="matrix(6.164576053619385, 0, 0, 6.164576053619385, -425.29617384985386, -1343.4329930592112)">
	<path fill="#444242" d="M429.2,241.4c-6.9-4.7-15.8-6.6-23.5-4.2c-7.9,2.5-14,8.8-17.7,16.4c-0.6,1.2-1.8,3.9-0.8,5.2&#10;&#9;&#9;c0.2,0.2,1.2,0.4,1.5,0.6c0.4,0.2,0.8,0.5,1.1,0.9c0.5,0.4,1,0.8,1.3,1.3c1.2,2,1.7,5,1.3,7.3c-0.2,1-0.6,2.5-1.7,2.8&#10;&#9;&#9;c-1.2,0.4-2.7-1.7-3.8-0.4c-0.3,0.4-0.3,1-0.5,1.4c-0.4,0.6-1.2,1.2-1.7,1.7c-0.9,0.8-1,1.4-0.6,1.9l-0.9,1.5l3.1,2.2l0.9-2.1&#10;&#9;&#9;c0.2,0.1,0.5,0.2,0.8,0.3c0.5,0.2,1,0.3,1.6,0.5v2l3.5,1.5l-0.3-2.5c1.9,0.5,4,1,5.8,1.3l0.6,1.3l4.2,1.1v-2.3&#10;&#9;&#9;c0.6-0.3,0.7-0.9,1.3-1.8l0.2,2.3l0.9-1l-0.3-2.1c1.3-0.8,2.2,2.1-0.6,4.8c-0.8,0.7-1.6,1.3-2.4,1.7l-0.3-0.6l-1.4,0.4l0.3,0.9&#10;&#9;&#9;c-1,0.3-1.9,0.5-2.8,0.5l0.3-1.6l-4.6-1.1v2.1c-1.4-0.4-2.6-0.7-4.5-0.8v-1.2l-2.7-1.1l-0.4,2.1c-0.8-0.1-1.5-0.4-2.3-1l-0.3-3.3&#10;&#9;&#9;l-1.6-1.1l0.3,3.2c-0.9-0.4-0.6,0.9-0.6,2.6c0,2.1-0.7,2.9-2.5,4.7c-1.8,1.9-0.6,2.7,1,4.3c1.6,1.6,5.8,1.9,8.9,1.2&#10;&#9;&#9;c3.1-0.6,9.8-0.4,16.9-0.9c7.1-0.5,8.5-6,9.6-9.7c1.1-3.7,4,0.2,3.8,1.9c-0.1,1.6-2.3,1.5,6.1,0c8.4-1.5,13.7-13.3,14.9-20.5&#10;&#9;&#9;C442.3,255.6,437,246.7,429.2,241.4z M400.5,266.3c-2.5-0.7-4.7-3.3-5.2-6.6c-0.3-2,2-6.3,3.6-7.3c0.3-0.2,0.7-0.3,1.1-0.2&#10;&#9;&#9;c3.3,0.4,6.7,5.3,7,8.5C407.3,264.4,404,267.2,400.5,266.3z" style="fill-opacity: 1;"/>
	<path fill="#444242" d="M88.8,265.8c1.2,7.2,6.5,19,14.9,20.5c8.4,1.5,6.2,1.6,6.1,0c-0.1-1.6,2.8-5.6,3.8-1.9&#10;&#9;&#9;c1.1,3.7,2.5,9.2,9.6,9.7c7.1,0.5,13.8,0.2,16.9,0.9c3.1,0.6,7.3,0.4,8.9-1.2c1.6-1.6,2.8-2.5,1-4.3c-1.8-1.9-2.5-2.6-2.5-4.7&#10;&#9;&#9;c0-1.7,0.2-3-0.6-2.6l0.3-3.2l-1.6,1.1l-0.3,3.3c-0.8,0.6-1.4,0.9-2.3,1l-0.4-2.1l-2.7,1.1v1.2c-1.8,0.1-3.1,0.5-4.5,0.8v-2.1&#10;&#9;&#9;l-4.6,1.1l0.3,1.6c-0.9,0-1.9-0.2-2.8-0.5l0.3-0.9l-1.4-0.4l-0.3,0.6c-0.8-0.4-1.6-1-2.4-1.7c-2.8-2.7-1.9-5.5-0.6-4.8l-0.3,2.1&#10;&#9;&#9;l0.9,1l0.2-2.3c0.6,0.9,0.7,1.5,1.3,1.8v2.3l4.2-1.1l0.6-1.3c1.9-0.3,3.9-0.8,5.8-1.3l-0.3,2.5l3.5-1.5v-2c0.6-0.2,1.1-0.4,1.6-0.5&#10;&#9;&#9;c0.3-0.1,0.5-0.2,0.8-0.3l0.9,2.1l3.1-2.2l-0.9-1.5c0.4-0.5,0.3-1.1-0.6-1.9c-0.5-0.5-1.3-1-1.7-1.7c-0.3-0.4-0.3-1-0.5-1.4&#10;&#9;&#9;c-1.1-1.3-2.5,0.8-3.8,0.4c-1-0.4-1.5-1.8-1.7-2.8c-0.4-2.3,0.1-5.3,1.3-7.3c0.3-0.5,0.8-0.9,1.3-1.3c0.4-0.3,0.7-0.6,1.1-0.9&#10;&#9;&#9;c0.3-0.2,1.3-0.4,1.5-0.6c1-1.2-0.2-4-0.8-5.2c-3.7-7.5-9.8-13.9-17.7-16.4c-7.8-2.4-16.6-0.5-23.5,4.2&#10;&#9;&#9;C92.4,246.7,87.2,255.6,88.8,265.8z M122.5,260.6c0.2-3.2,3.6-8.1,7-8.5c0.4,0,0.8,0,1.1,0.2c1.5,1,3.9,5.4,3.6,7.3&#10;&#9;&#9;c-0.5,3.2-2.6,5.9-5.2,6.6C125.4,267.2,122.2,264.4,122.5,260.6z" style="fill-opacity: 1;"/>
</g></svg>