<?xml version="1.0" encoding="utf-8"?>
<svg id="master-artboard" viewBox="0 0 2400 2400" version="1.1" xmlns="http://www.w3.org/2000/svg" x="0px" y="0px" style="enable-background:new 0 0 2400 2400;" width="2400px" height="2400px">



<g opacity="0.15" transform="matrix(3.972710609436035, 0, 0, 3.972710609436035, -4107.016004785662, -2335.41385700247)">
			<g>
				<g>
					<path d="M 1242.041992 1021.299988 A 31.5 31.5 0 0 1 1210.541992 1052.799988 A 31.5 31.5 0 0 1 1179.041992 1021.299988 A 31.5 31.5 0 0 1 1210.541992 989.799988 A 31.5 31.5 0 0 1 1242.041992 1021.299988 Z"/>
					<path d="M 1264.977051 976.870972 A 31.5 31.5 0 0 1 1233.477051 1008.370972 A 31.5 31.5 0 0 1 1201.977051 976.870972 A 31.5 31.5 0 0 1 1233.477051 945.370972 A 31.5 31.5 0 0 1 1264.977051 976.870972 Z"/>
				</g>
				<g>
					<path d="M 1468.185059 1138.042969 A 31.5 31.5 0 0 1 1436.685059 1169.542969 A 31.5 31.5 0 0 1 1405.185059 1138.042969 A 31.5 31.5 0 0 1 1436.685059 1106.542969 A 31.5 31.5 0 0 1 1468.185059 1138.042969 Z"/>
					<path d="M 1491.120972 1093.614014 A 31.5 31.5 0 0 1 1459.620972 1125.114014 A 31.5 31.5 0 0 1 1428.120972 1093.614014 A 31.5 31.5 0 0 1 1459.620972 1062.114014 A 31.5 31.5 0 0 1 1491.120972 1093.614014 Z"/>
				</g>
				
					<path d="M 1314.275024 929.937012 H 1356.776024 V 1185.436005 H 1314.275024 V 929.937012 Z" transform="matrix(0.4587 -0.8886 0.8886 0.4587 -216.9468 1759.2271)"/>
			</g>
			<g>
				<g>
					<path d="M 1491.120972 1021.299988 A 31.5 31.5 0 0 1 1459.620972 1052.799988 A 31.5 31.5 0 0 1 1428.120972 1021.299988 A 31.5 31.5 0 0 1 1459.620972 989.799988 A 31.5 31.5 0 0 1 1491.120972 1021.299988 Z"/>
					<path d="M 1468.186035 976.870972 A 31.5 31.5 0 0 1 1436.686035 1008.370972 A 31.5 31.5 0 0 1 1405.186035 976.870972 A 31.5 31.5 0 0 1 1436.686035 945.370972 A 31.5 31.5 0 0 1 1468.186035 976.870972 Z"/>
				</g>
				<g>
					<path d="M 1264.978027 1138.042969 A 31.5 31.5 0 0 1 1233.478027 1169.542969 A 31.5 31.5 0 0 1 1201.978027 1138.042969 A 31.5 31.5 0 0 1 1233.478027 1106.542969 A 31.5 31.5 0 0 1 1264.978027 1138.042969 Z"/>
					<path d="M 1242.041992 1093.614014 A 31.5 31.5 0 0 1 1210.541992 1125.114014 A 31.5 31.5 0 0 1 1179.041992 1093.614014 A 31.5 31.5 0 0 1 1210.541992 1062.114014 A 31.5 31.5 0 0 1 1242.041992 1093.614014 Z"/>
				</g>
				
					<path d="M 1313.385986 929.937012 H 1355.886986 V 1185.436005 H 1313.385986 V 929.937012 Z" transform="matrix(-0.4587 -0.8886 0.8886 -0.4587 1007.0212 2728.801)"/>
			</g>
			<path d="M 1478.827057 753.843018 A 143.746002 143.746002 0 0 1 1335.081055 897.58902 A 143.746002 143.746002 0 0 1 1191.335052 753.843018 A 143.746002 143.746002 0 0 1 1335.081055 610.097015 A 143.746002 143.746002 0 0 1 1478.827057 753.843018 Z"/>
			<path d="M1405.828,912.19c0,14.145-11.466,25.609-25.61,25.609h-90.274c-14.145,0-25.611-11.465-25.611-25.609v-35.536&#10;&#9;&#9;&#9;&#9;c0-14.145,11.466-25.609,25.611-25.609h90.274c14.145,0,25.61,11.465,25.61,25.609V912.19z"/>
		</g><g transform="matrix(3.972710609436035, 0, 0, 3.972710609436035, -4107.016004785662, -2335.41385700247)">
				<path d="M 1232.041992 1011.299988 A 31.5 31.5 0 0 1 1200.541992 1042.799988 A 31.5 31.5 0 0 1 1169.041992 1011.299988 A 31.5 31.5 0 0 1 1200.541992 979.799988 A 31.5 31.5 0 0 1 1232.041992 1011.299988 Z" fill="#FFFFFF"/>
				<path d="M 1254.977051 966.870972 A 31.5 31.5 0 0 1 1223.477051 998.370972 A 31.5 31.5 0 0 1 1191.977051 966.870972 A 31.5 31.5 0 0 1 1223.477051 935.370972 A 31.5 31.5 0 0 1 1254.977051 966.870972 Z" fill="#FFFFFF"/>
			</g><path d="M 1458.185059 1128.042969 A 31.5 31.5 0 0 1 1426.685059 1159.542969 A 31.5 31.5 0 0 1 1395.185059 1128.042969 A 31.5 31.5 0 0 1 1426.685059 1096.542969 A 31.5 31.5 0 0 1 1458.185059 1128.042969 Z" fill="#FFFFFF" transform="matrix(3.972710609436035, 0, 0, 3.972710609436035, -4107.016004785662, -2335.41385700247)"/><path d="M 1481.120972 1083.614014 A 31.5 31.5 0 0 1 1449.620972 1115.114014 A 31.5 31.5 0 0 1 1418.120972 1083.614014 A 31.5 31.5 0 0 1 1449.620972 1052.114014 A 31.5 31.5 0 0 1 1481.120972 1083.614014 Z" fill="#FFFFFF" transform="matrix(3.972710609436035, 0, 0, 3.972710609436035, -4107.016004785662, -2335.41385700247)"/><path d="M 1304.275024 919.937012 H 1346.776024 V 1175.436005 H 1304.275024 V 919.937012 Z" transform="matrix(1.8222823143005369, -3.530150890350342, 3.5301508903503414, 1.822282314300537, -4955.085340723161, 4596.682090263155)" fill="#FFFFFF"/><g transform="matrix(3.972710609436035, 0, 0, 3.972710609436035, -4107.016004785662, -2335.41385700247)">
				<path d="M 1481.120972 1011.299988 A 31.5 31.5 0 0 1 1449.620972 1042.799988 A 31.5 31.5 0 0 1 1418.120972 1011.299988 A 31.5 31.5 0 0 1 1449.620972 979.799988 A 31.5 31.5 0 0 1 1481.120972 1011.299988 Z" fill="#FFFFFF"/>
				<path d="M 1458.186035 966.870972 A 31.5 31.5 0 0 1 1426.686035 998.370972 A 31.5 31.5 0 0 1 1395.186035 966.870972 A 31.5 31.5 0 0 1 1426.686035 935.370972 A 31.5 31.5 0 0 1 1458.186035 966.870972 Z" fill="#FFFFFF"/>
			</g><path d="M 1254.978027 1128.042969 A 31.5 31.5 0 0 1 1223.478027 1159.542969 A 31.5 31.5 0 0 1 1191.978027 1128.042969 A 31.5 31.5 0 0 1 1223.478027 1096.542969 A 31.5 31.5 0 0 1 1254.978027 1128.042969 Z" fill="#FFFFFF" transform="matrix(3.972710609436035, 0, 0, 3.972710609436035, -4107.016004785662, -2335.41385700247)"/><path d="M 1232.041992 1083.614014 A 31.5 31.5 0 0 1 1200.541992 1115.114014 A 31.5 31.5 0 0 1 1169.041992 1083.614014 A 31.5 31.5 0 0 1 1200.541992 1052.114014 A 31.5 31.5 0 0 1 1232.041992 1083.614014 Z" fill="#FFFFFF" transform="matrix(3.972710609436035, 0, 0, 3.972710609436035, -4107.016004785662, -2335.41385700247)"/><path d="M 1303.385986 919.937012 H 1345.886986 V 1175.436005 H 1303.385986 V 919.937012 Z" transform="matrix(-1.8222823143005369, -3.530150890350342, 3.5301508903503414, -1.822282314300537, -129.06158278859175, 8412.072226981905)" fill="#FFFFFF"/><path d="M 1468.827057 743.843018 A 143.746002 143.746002 0 0 1 1325.081055 887.58902 A 143.746002 143.746002 0 0 1 1181.335052 743.843018 A 143.746002 143.746002 0 0 1 1325.081055 600.097015 A 143.746002 143.746002 0 0 1 1468.827057 743.843018 Z" fill="#FFFFFF" transform="matrix(3.972710609436035, 0, 0, 3.972710609436035, -4107.016004785662, -2335.41385700247)"/><path fill="#FFFFFF" d="M1395.828,902.19c0,14.145-11.466,25.609-25.61,25.609h-90.274c-14.145,0-25.611-11.465-25.611-25.609&#10;&#9;&#9;&#9;v-35.536c0-14.145,11.466-25.609,25.611-25.609h90.274c14.145,0,25.61,11.465,25.61,25.609V902.19z" transform="matrix(3.972710609436035, 0, 0, 3.972710609436035, -4107.016004785662, -2335.41385700247)"/><path d="M 1290.56995 762.20697 A 30.396 30.396 0 0 1 1260.17395 792.60297 A 30.396 30.396 0 0 1 1229.77795 762.20697 A 30.396 30.396 0 0 1 1260.17395 731.81097 A 30.396 30.396 0 0 1 1290.56995 762.20697 Z" fill="#352B26" transform="matrix(3.972710609436035, 0, 0, 3.972710609436035, -4107.016004785662, -2335.41385700247)"/><path d="M 1420.384037 762.20697 A 30.396 30.396 0 0 1 1389.988037 792.60297 A 30.396 30.396 0 0 1 1359.592037 762.20697 A 30.396 30.396 0 0 1 1389.988037 731.81097 A 30.396 30.396 0 0 1 1420.384037 762.20697 Z" fill="#352B26" transform="matrix(3.972710609436035, 0, 0, 3.972710609436035, -4107.016004785662, -2335.41385700247)"/><path d="M 1302.7030029296875 828.9520263671875 L 1325.0810546875 786.27001953125 L 1347.4580078125 828.9520263671875 Z" fill="#352B26" transform="matrix(3.972710609436035, 0, 0, 3.972710609436035, -4107.016004785662, -2335.41385700247)"/><path d="M 1279.488037 868.273987 H 1370.674034 V 898.036987 H 1279.488037 V 868.273987 Z" fill="#352B26" transform="matrix(3.972710609436035, 0, 0, 3.972710609436035, -4107.016004785662, -2335.41385700247)"/><path d="M 1292.785034 856.875977 H 1318.748034 V 882.837976 H 1292.785034 V 856.875977 Z" fill="#FFFFFF" transform="matrix(3.972710609436035, 0, 0, 3.972710609436035, -4107.016004785662, -2335.41385700247)"/><path d="M 1331.412964 856.875977 H 1357.375963 V 882.837976 H 1331.412964 V 856.875977 Z" fill="#FFFFFF" transform="matrix(3.972710609436035, 0, 0, 3.972710609436035, -4107.016004785662, -2335.41385700247)"/></svg>