<?xml version="1.0" encoding="utf-8"?>
<svg id="master-artboard" viewBox="0 0 1400 980" version="1.1" xmlns="http://www.w3.org/2000/svg" x="0px" y="0px" style="enable-background:new 0 0 1400 980;" width="1400px" height="980px">



<path d="M1370.1,1217.6l-20-2.5l-67.8-206.8l14.3-18.6c4-5.2,3.1-12.8-2.2-16.8c-5.2-4-12.8-3.1-16.8,2.2l-14.8,19.2l-241.1,11.8&#10;&#9;&#9;l-8.6-14.8c-3.3-5.7-10.7-7.6-16.4-4.3c-5.7,3.3-7.6,10.7-4.3,16.4l9.5,16.3l-62,153.1l-66.5-5c-6.6-0.5-12.4,4.5-12.9,11.1&#10;&#9;&#9;c-0.5,6.6,4.5,12.4,11.1,12.9l68.1,5.1l72.3,162.6l-9.9,16.8c-3.4,5.7-1.4,13.1,4.3,16.4c1.9,1.1,4,1.7,6.1,1.7&#10;&#9;&#9;c4.1,0,8.1-2.1,10.4-5.9l9.5-16.2h198.1l10.5,14.7c2.3,3.3,6,5,9.8,5c2.4,0,4.9-0.7,7-2.3c5.4-3.9,6.6-11.4,2.7-16.7l-10.9-15.2&#10;&#9;&#9;l46.4-125.3l71.2,8.9c6.6,0.8,12.6-3.8,13.4-10.4C1381.3,1224.4,1376.6,1218.4,1370.1,1217.6z M1243.5,1019.3l-19.2,24.9&#10;&#9;&#9;l-175.1,8.8l-13.8-23.6L1243.5,1019.3z M1052,1205.5l16.9,57.1l-14.1,23.9l-25.5-82.7L1052,1205.5z M1027.7,1179.6l19.7-81.9&#10;&#9;&#9;l11.3,19.4l-8.1,64.2L1027.7,1179.6z M1062.8,1076.4l142.2-7.2l-16,20.7l-111.4,11.8L1062.8,1076.4z M1215.9,1198.4l-23.7-3&#10;&#9;&#9;l-16-49.6l15.1-19.5L1215.9,1198.4z M1142.7,1189.3l15.7-20.4l7.5,23.3L1142.7,1189.3z M1164.1,1216.2l-7.1,13.1l-11-15.3&#10;&#9;&#9;L1164.1,1216.2z M1156.5,1132.1l-58,5.5l-7.6-13l77.8-8.2L1156.5,1132.1z M1121.3,1220.6l16.2,22.6l-32.5,5.1L1121.3,1220.6z&#10;&#9;&#9; M1111.9,1160.4l24.6-2.3l-14.7,19.1L1111.9,1160.4z M1100.2,1209.1l-14.7,25.1l-7.9-26.8L1100.2,1209.1z M1074.6,1183.1l4-32&#10;&#9;&#9;l19.8,33.8L1074.6,1183.1z M1089.3,1275.1l63.9-10.1l25.8,35.9l-106.3,2.7L1089.3,1275.1z M1172.6,1250.9l17.1-31.5l27.8,3.5&#10;&#9;&#9;l-20.1,62.6L1172.6,1250.9z M1208.8,1103.6l17.6-22.8l43.9,124.4l-27.9-3.5L1208.8,1103.6z M1017.1,1046l12.8,21.8l-26.5,109.9&#10;&#9;&#9;l-38.5-2.9L1017.1,1046z M1026.8,1334.2l-60-135.1l36.9,2.8l34.7,112.7L1026.8,1334.2z M1046.3,1348.4l12-20.5l137.5-3.4l17.2,24&#10;&#9;&#9;H1046.3z M1232.6,1334.3l-17.7-24.7l27-83.8l29.6,3.7L1232.6,1334.3z M1296.9,1208.5l-53.1-150.4l20.7-26.8l59.2,180.5&#10;&#9;&#9;L1296.9,1208.5z" transform="matrix(2.17612624168396, 0, 0, 2.17612624168396, -1776.6182967397058, -2096.9308843250656)"/></svg>